<svg xmlns="http://www.w3.org/2000/svg"  viewBox="0 0 117 37">
    <g fill="none" fill-rule="evenodd" opacity=".5">
        <g fill="#FFF" fill-rule="nonzero">
            <path d="M28.407 18.04a4.274 4.274 0 0 1 2.02-3.58 4.337 4.337 0 0 0-3.422-1.862c-1.44-.152-2.836.867-3.57.867-.748 0-1.877-.851-3.094-.826a4.555 4.555 0 0 0-3.836 2.352c-1.658 2.889-.42 7.133 1.168 9.467.794 1.143 1.723 2.42 2.939 2.375 1.19-.05 1.633-.763 3.07-.763 1.422 0 1.838.763 3.078.734 1.277-.02 2.08-1.148 2.848-2.302a9.477 9.477 0 0 0 1.302-2.667 4.125 4.125 0 0 1-2.503-3.794zM26.064 11.063a4.219 4.219 0 0 0 .956-3.01 4.243 4.243 0 0 0-2.75 1.43 4.014 4.014 0 0 0-.981 2.9 3.507 3.507 0 0 0 2.775-1.32z"/>
            <g>
                <path d="M43.441 23.94h-4.059l-.974 2.894h-1.72l3.845-10.71h1.786l3.845 10.71h-1.749l-.974-2.895zm-3.638-1.337h3.217l-1.586-4.698h-.044l-1.587 4.698zM54.466 22.93c0 2.427-1.29 3.986-3.24 3.986a2.629 2.629 0 0 1-2.442-1.366h-.037v3.867h-1.594V19.025h1.543v1.3h.03a2.75 2.75 0 0 1 2.471-1.381c1.97 0 3.27 1.566 3.27 3.986zm-1.638 0c0-1.58-.812-2.62-2.051-2.62-1.218 0-2.037 1.061-2.037 2.62 0 1.574.82 2.627 2.037 2.627 1.24 0 2.051-1.032 2.051-2.627zM63.011 22.93c0 2.427-1.291 3.986-3.24 3.986a2.629 2.629 0 0 1-2.442-1.366h-.037v3.867h-1.594V19.025h1.543v1.3h.029a2.75 2.75 0 0 1 2.472-1.381c1.97 0 3.27 1.566 3.27 3.986zm-1.638 0c0-1.58-.812-2.62-2.051-2.62-1.218 0-2.037 1.061-2.037 2.62 0 1.574.819 2.627 2.037 2.627 1.239 0 2.051-1.032 2.051-2.627zM68.659 23.85c.118 1.062 1.143 1.76 2.545 1.76 1.343 0 2.31-.698 2.31-1.656 0-.831-.583-1.329-1.963-1.67l-1.38-.334c-1.955-.475-2.863-1.395-2.863-2.888 0-1.848 1.6-3.117 3.874-3.117 2.25 0 3.793 1.27 3.845 3.117h-1.609c-.096-1.069-.974-1.714-2.258-1.714s-2.162.653-2.162 1.603c0 .757.56 1.203 1.933 1.544l1.173.29c2.185.52 3.093 1.402 3.093 2.969 0 2.004-1.587 3.259-4.11 3.259-2.362 0-3.957-1.226-4.06-3.163h1.632zM78.636 17.177v1.848h1.476v1.27h-1.476V24.6c0 .668.296.98.945.98.175-.003.35-.015.524-.037v1.262c-.292.054-.588.08-.885.074-1.572 0-2.185-.594-2.185-2.108v-4.476h-1.129v-1.27h1.129v-1.848h1.601zM80.967 22.93c0-2.457 1.44-4 3.682-4 2.251 0 3.683 1.543 3.683 4 0 2.464-1.424 4.001-3.683 4.001-2.257 0-3.682-1.537-3.682-4zm5.742 0c0-1.685-.768-2.68-2.06-2.68-1.29 0-2.058 1.002-2.058 2.68 0 1.692.767 2.68 2.058 2.68 1.292 0 2.06-.988 2.06-2.68zM89.646 19.025h1.52v1.33h.037a1.853 1.853 0 0 1 1.867-1.411c.184-.001.367.019.546.06v1.499a2.216 2.216 0 0 0-.716-.097 1.601 1.601 0 0 0-1.24.514c-.32.345-.473.814-.42 1.282v4.632h-1.594v-7.809zM100.964 24.54c-.215 1.418-1.587 2.391-3.343 2.391-2.259 0-3.66-1.522-3.66-3.964 0-2.45 1.409-4.038 3.593-4.038 2.148 0 3.498 1.484 3.498 3.852v.55H95.57v.096a2.041 2.041 0 0 0 .548 1.58c.4.423.96.653 1.54.632a1.755 1.755 0 0 0 1.793-1.098h1.514zm-5.387-2.33h3.88a1.884 1.884 0 0 0-.52-1.41 1.862 1.862 0 0 0-1.383-.572 1.96 1.96 0 0 0-1.4.577c-.37.372-.579.878-.577 1.405z"/>
            </g>
            <g>
                <path d="M37.546 10.637c0-1.67.883-2.7 2.305-2.7a2.048 2.048 0 0 1 2.128 1.783h-.792a1.318 1.318 0 0 0-1.336-1.038c-.919 0-1.493.753-1.493 1.955 0 1.198.574 1.95 1.496 1.95a1.283 1.283 0 0 0 1.333-.948h.792a1.999 1.999 0 0 1-2.125 1.694c-1.422 0-2.308-1.03-2.308-2.696zM42.848 11.264a1.843 1.843 0 0 1 .856-1.738 1.82 1.82 0 0 1 1.93 0c.59.369.922 1.042.856 1.738a1.844 1.844 0 0 1-.856 1.742 1.82 1.82 0 0 1-1.93 0 1.844 1.844 0 0 1-.856-1.742zm2.858 0c0-.841-.376-1.334-1.036-1.334-.662 0-1.035.493-1.035 1.335 0 .848.373 1.337 1.035 1.337.66 0 1.036-.492 1.036-1.338zM47.512 9.324h.734v.617h.057c.198-.454.66-.732 1.152-.692.38-.028.753.118 1.013.4.26.28.38.665.323 1.045v2.514h-.762v-2.322c0-.624-.27-.934-.833-.934a.883.883 0 0 0-.686.279.894.894 0 0 0-.236.705v2.272h-.762V9.324zM53.382 9.25c.868 0 1.436.406 1.51 1.09h-.73c-.071-.285-.348-.467-.78-.467-.426 0-.75.203-.75.507 0 .232.196.378.615.474l.641.15c.735.171 1.079.489 1.079 1.06 0 .73-.678 1.219-1.6 1.219-.918 0-1.517-.417-1.585-1.105h.763a.783.783 0 0 0 .84.484c.475 0 .812-.214.812-.524 0-.232-.18-.382-.568-.474l-.673-.157c-.734-.175-1.074-.507-1.074-1.084 0-.689.627-1.174 1.5-1.174zM55.929 8.675l.89-1.227h.894l-.997 1.227h-.787zm.079.65h.758v3.883h-.758V9.324zM57.953 13.597h.78c.064.282.386.463.9.463.635 0 1.011-.303 1.011-.816v-.746h-.057a1.297 1.297 0 0 1-1.191.653c-.986 0-1.596-.767-1.596-1.93 0-1.184.617-1.961 1.603-1.961.5-.018.968.246 1.213.685h.06v-.62h.73v3.915c0 .888-.691 1.452-1.783 1.452-.965 0-1.589-.435-1.67-1.095zm2.705-2.38c0-.773-.397-1.269-1.046-1.269-.656 0-1.024.496-1.024 1.27s.368 1.27 1.024 1.27c.653 0 1.046-.492 1.046-1.27zM65.876 13.208h-.735v-.617h-.06c-.2.46-.67.738-1.166.692a1.25 1.25 0 0 1-1.007-.399 1.266 1.266 0 0 1-.324-1.038V9.324h.764v2.322c0 .628.251.927.811.927a.874.874 0 0 0 .709-.26.885.885 0 0 0 .245-.717V9.324h.763v3.884zM70.355 12.16a1.568 1.568 0 0 1-1.673 1.123 1.75 1.75 0 0 1-1.353-.587 1.771 1.771 0 0 1-.43-1.418 1.798 1.798 0 0 1 .43-1.423c.34-.389.833-.61 1.35-.606 1.074 0 1.722.739 1.722 1.958v.268h-2.726v.043a1.03 1.03 0 0 0 .27.785c.195.212.47.33.758.327a.924.924 0 0 0 .919-.47h.733zm-2.68-1.252h1.95a.94.94 0 0 0-.254-.715.929.929 0 0 0-.697-.291.985.985 0 0 0-.71.29.996.996 0 0 0-.29.716zM71.46 7.808h.762v5.4h-.762zM73.28 11.264a1.843 1.843 0 0 1 .857-1.738 1.82 1.82 0 0 1 1.93 0c.59.369.922 1.042.856 1.738a1.844 1.844 0 0 1-.856 1.742 1.82 1.82 0 0 1-1.93 0 1.844 1.844 0 0 1-.856-1.742zm2.859 0c0-.841-.376-1.334-1.036-1.334-.662 0-1.035.493-1.035 1.335 0 .848.373 1.337 1.035 1.337.66 0 1.036-.492 1.036-1.338zM83.305 12.16a1.568 1.568 0 0 1-1.673 1.123 1.75 1.75 0 0 1-1.353-.587 1.771 1.771 0 0 1-.43-1.418 1.798 1.798 0 0 1 .43-1.423c.341-.389.834-.61 1.35-.606 1.074 0 1.722.739 1.722 1.958v.268h-2.726v.043a1.03 1.03 0 0 0 .27.785c.195.212.47.33.758.327a.924.924 0 0 0 .919-.47h.733zm-2.68-1.252h1.95a.94.94 0 0 0-.254-.715.929.929 0 0 0-.696-.291.985.985 0 0 0-.711.29.996.996 0 0 0-.29.716zM84.375 9.324h.733v.617h.057c.198-.454.661-.732 1.152-.692.381-.028.754.118 1.014.4.26.28.379.665.323 1.045v2.514h-.762v-2.322c0-.624-.27-.934-.833-.934a.883.883 0 0 0-.686.279.894.894 0 0 0-.236.705v2.272h-.762V9.324zM94.192 12.16a1.568 1.568 0 0 1-1.673 1.123 1.75 1.75 0 0 1-1.353-.587 1.771 1.771 0 0 1-.43-1.418 1.798 1.798 0 0 1 .43-1.423c.341-.389.834-.61 1.35-.606 1.074 0 1.722.739 1.722 1.958v.268h-2.726v.043a1.03 1.03 0 0 0 .27.785c.195.212.47.33.758.327a.924.924 0 0 0 .919-.47h.733zm-2.68-1.252h1.95a.94.94 0 0 0-.254-.715.929.929 0 0 0-.696-.291.985.985 0 0 0-.711.29.996.996 0 0 0-.29.716zM95.297 7.808h.762v5.4h-.762z"/>
            </g>
        </g>
        <path stroke="#FFF" d="M111.74 1H5.26C2.916 1 1 2.969 1 5.375v26.25C1 34.031 2.917 36 5.26 36h106.48c2.343 0 4.26-1.969 4.26-4.375V5.375C116 2.969 114.083 1 111.74 1"/>
    </g>
</svg>
