<svg xmlns="http://www.w3.org/2000/svg"  viewBox="0 0 89 24">
    <g fill="#FFF" fill-rule="nonzero">
        <path d="M14.173 10.041a2.492 2.492 0 0 0-1.747-.711c-.656 0-1.284.256-1.748.711L0 20.522l3.486 3.431 8.92-8.781a4.981 4.981 0 0 1 3.494-1.425c1.311 0 2.569.513 3.495 1.425l-5.222-5.13zM14.312 3.043h3.501v.322a3.19 3.19 0 0 1-.895 2.297 3.03 3.03 0 0 1-2.265.91c-1.81.005-3.282-1.433-3.288-3.212C11.36 1.58 12.823.134 14.633.129c1.397 0 2.528.675 2.982 1.797l-.669.23c-.444-.879-1.285-1.343-2.313-1.343a2.425 2.425 0 0 0-1.793.743 2.588 2.588 0 0 0 .01 3.598 2.5 2.5 0 0 0 1.821.732 2.341 2.341 0 0 0 1.65-.612c.448-.41.727-.967.784-1.566h-2.786l-.007-.665zM23.396 1.875l-.056.676a2.04 2.04 0 0 0-.275-.01c-1.199 0-1.867.862-1.867 2.151v1.76h-.726V1.886h.726v1.127c.437-.78 1.06-1.17 1.867-1.17.111-.005.223.006.33.033zM29.894 1.885v4.558h-.719v-.741c-.397.573-.982.86-1.755.862a1.798 1.798 0 0 1-1.36-.538 1.964 1.964 0 0 1-.509-1.408V1.88h.726v2.603c0 .852.52 1.417 1.283 1.417.984 0 1.615-.667 1.615-1.825v-2.19h.72zM37.042 2.45c.465.454.715 1.078.69 1.722a2.317 2.317 0 0 1-.69 1.733 2.25 2.25 0 0 1-1.639.667c-.801 0-1.414-.277-1.849-.843v2.299h-.708V1.885h.717v.73c.434-.565 1.047-.843 1.849-.843a2.217 2.217 0 0 1 1.63.678zm-.508 3.01a1.908 1.908 0 0 0 0-2.577 1.775 1.775 0 0 0-1.927-.34 1.72 1.72 0 0 0-1.044 1.629c-.017.463.159.913.486 1.247.327.334.778.523 1.25.525a1.69 1.69 0 0 0 1.235-.484zM44.062 2.458a2.21 2.21 0 0 1 .717 1.704 2.26 2.26 0 0 1-.717 1.725 2.429 2.429 0 0 1-1.745.677 2.482 2.482 0 0 1-1.765-.677 2.288 2.288 0 0 1-.707-1.725c-.022-.64.235-1.26.707-1.704a2.47 2.47 0 0 1 1.765-.677 2.422 2.422 0 0 1 1.745.677zm-.51 2.985c.35-.336.538-.801.52-1.28a1.71 1.71 0 0 0-.502-1.242 1.772 1.772 0 0 0-1.253-.518 1.742 1.742 0 0 0-1.256.501 1.643 1.643 0 0 0-.52 1.258c-.014.47.167.926.502 1.263.335.336.795.523 1.274.519.464.007.911-.174 1.236-.501z"/>
        <path d="M19.646 15.436c-1.948-1.736-4.939-1.665-6.8.16l8.483 8.35 3.486-3.432-5.17-5.078zM34.038 23.241a2.492 2.492 0 0 0 1.747.712c.656 0 1.284-.256 1.747-.712l10.679-10.48-3.486-3.432-8.92 8.782a4.981 4.981 0 0 1-3.495 1.425 4.981 4.981 0 0 1-3.494-1.425l5.222 5.13z"/>
        <path d="M28.565 17.845c1.948 1.737 4.94 1.666 6.799-.16L26.88 9.328l-3.486 3.431 5.171 5.085z"/>
        <g>
            <path d="M60.404 10.041a2.492 2.492 0 0 0-1.748-.711c-.655 0-1.284.256-1.747.711L46.231 20.522l3.484 3.431 8.922-8.781a4.98 4.98 0 0 1 3.494-1.426 4.98 4.98 0 0 1 3.495 1.426l-5.222-5.13z"/>
        </g>
        <path d="M65.876 15.436c-1.947-1.736-4.938-1.665-6.798.16l8.482 8.35 3.486-3.432-5.17-5.078z"/>
        <g>
            <path d="M73.718 21.51c0 1.341 1.106 2.429 2.471 2.429h12.754v-4.847l-10.289.01a4.98 4.98 0 0 1-3.496-1.42 4.808 4.808 0 0 1-1.445-3.437l.005 7.265z"/>
        </g>
        <path d="M73.729 13.893c.132 2.58 2.3 4.605 4.929 4.605l.008-9.17h-4.932l-.005 4.565z"/>
    </g>
</svg>
