<svg xmlns="http://www.w3.org/2000/svg" xmlns:xlink="http://www.w3.org/1999/xlink" viewBox="0 0 79 24">
    <defs>
        <path id="a" d="M.042.095h2.072V2.76H.042z"/>
        <path id="c" d="M0 23.676h78.768V.052H0z"/>
    </defs>
    <g fill="none" fill-rule="evenodd" opacity=".5">
        <path fill="#FFF" d="M0 20.862v2.692h.303v-1.3h.78v-.313h-.78v-.747h1.068v-.332zM2.354 22.686c0 .473.171.709.513.709a.432.432 0 0 0 .372-.19c.092-.127.136-.3.136-.519 0-.466-.17-.7-.508-.7a.443.443 0 0 0-.374.186c-.092.124-.139.296-.139.514m-.359 0c0-.292.08-.526.24-.704a.8.8 0 0 1 .632-.267c.274 0 .486.084.64.256.15.173.227.41.227.715 0 .303-.077.542-.234.718-.154.175-.367.264-.633.264-.276 0-.49-.09-.641-.267-.154-.176-.23-.414-.23-.715M5.275 23.633v-1.096c0-.202-.03-.341-.093-.422-.062-.08-.165-.12-.31-.12a.508.508 0 0 0-.243.069.527.527 0 0 0-.195.168v1.4h-.342v-1.884h.233l.109.243c.111-.186.296-.276.55-.276.42 0 .632.248.632.751v1.167h-.341zM7.317 22.184a.404.404 0 0 0-.352-.19.55.55 0 0 0-.445.202.761.761 0 0 0-.17.51c0 .453.21.68.631.68.055 0 .12-.017.194-.05.076-.033.123-.07.142-.107v-1.045zm0 1.446v-.139c-.118.117-.29.175-.516.175a.744.744 0 0 1-.584-.253c-.15-.17-.224-.395-.224-.677 0-.281.085-.522.257-.723a.791.791 0 0 1 .616-.298c.198 0 .348.044.45.135v-.874h.343v2.654h-.342zM8.379 22.686c0 .473.17.709.512.709a.433.433 0 0 0 .373-.19c.091-.127.136-.3.136-.519 0-.466-.17-.7-.51-.7a.438.438 0 0 0-.37.186c-.094.124-.141.296-.141.514m-.358 0c0-.292.079-.526.24-.704a.798.798 0 0 1 .63-.267c.275 0 .488.084.64.256.151.173.227.41.227.715 0 .303-.077.542-.232.718-.155.175-.368.264-.635.264-.273 0-.487-.09-.64-.267-.154-.176-.23-.414-.23-.715M12.443 22.184a.41.41 0 0 0-.354-.19.553.553 0 0 0-.445.202.764.764 0 0 0-.168.51c0 .453.21.68.63.68a.517.517 0 0 0 .195-.05c.074-.033.122-.07.142-.107v-1.045zm0 1.446v-.139c-.12.117-.291.175-.519.175a.747.747 0 0 1-.584-.253c-.148-.17-.224-.395-.224-.677 0-.281.087-.522.259-.723.173-.198.376-.298.614-.298.2 0 .35.044.454.135v-.874h.34v2.654h-.34zM14.063 21.995a.534.534 0 0 0-.55.486h1.064a.46.46 0 0 0-.13-.337.506.506 0 0 0-.384-.15m.826.729h-1.385c0 .22.062.39.185.507a.58.58 0 0 0 .42.156.725.725 0 0 0 .488-.167l.143.241a.665.665 0 0 1-.242.133c-.136.049-.289.075-.456.075a.86.86 0 0 1-.614-.241c-.19-.178-.282-.416-.282-.715 0-.31.096-.56.288-.748a.845.845 0 0 1 .612-.25c.274 0 .489.074.644.225.15.146.225.34.225.58a.723.723 0 0 1-.026.204"/>
        <g transform="translate(16.24 20.916)">
            <mask id="b" fill="#fff">
                <use xlink:href="#a"/>
            </mask>
            <path fill="#FFF" d="M1.989.317L1.84.61C1.66.478 1.482.413 1.31.413c-.277 0-.493.093-.654.284-.158.19-.237.442-.237.755 0 .297.078.537.234.719.157.181.368.272.638.272a.65.65 0 0 0 .466-.168v-.603H1.39v-.3h.723v1.122c-.095.082-.23.145-.4.193-.17.047-.337.074-.499.074-.361 0-.648-.122-.856-.363-.212-.241-.317-.561-.317-.96 0-.399.116-.722.346-.97.23-.248.54-.373.931-.373.274 0 .497.075.67.222" mask="url(#b)"/>
        </g>
        <path fill="#FFF" d="M19.918 22.708a1.181 1.181 0 0 0-.225-.037.654.654 0 0 0-.422.13c-.109.088-.164.19-.164.308 0 .196.118.295.354.295.172 0 .325-.08.457-.24v-.456zm.033.708c-.137.168-.345.252-.627.252a.535.535 0 0 1-.39-.162.526.526 0 0 1-.166-.4c0-.19.084-.353.255-.483.17-.132.387-.2.652-.2a.83.83 0 0 1 .243.045c0-.303-.138-.456-.416-.456-.213 0-.376.056-.49.169l-.146-.28a.925.925 0 0 1 .27-.133c.113-.036.223-.053.327-.053.28 0 .481.06.607.185.126.123.19.322.19.592v.676c0 .165.05.276.15.33v.168a.65.65 0 0 1-.312-.058.333.333 0 0 1-.147-.192zM21.84 22.07a.385.385 0 0 0-.224-.075.401.401 0 0 0-.318.163.596.596 0 0 0-.136.394v1.08h-.34v-1.884h.34v.3a.6.6 0 0 1 .556-.333c.06 0 .148.008.263.03l-.142.325zM23.276 22.708a1.187 1.187 0 0 0-.227-.037.651.651 0 0 0-.42.13c-.109.088-.164.19-.164.308 0 .196.117.295.354.295.172 0 .324-.08.457-.24v-.456zm.031.708c-.134.168-.343.252-.625.252a.537.537 0 0 1-.39-.162.528.528 0 0 1-.168-.4.59.59 0 0 1 .257-.483c.17-.132.387-.2.651-.2a.82.82 0 0 1 .244.045c0-.303-.139-.456-.416-.456-.213 0-.377.056-.491.169l-.143-.28a.863.863 0 0 1 .268-.133c.113-.036.223-.053.326-.053.28 0 .482.06.609.185.125.123.189.322.189.592v.676c0 .165.05.276.15.33v.168a.65.65 0 0 1-.312-.058.339.339 0 0 1-.149-.192zM25.335 23.633v-1.096c0-.202-.03-.341-.092-.422-.06-.08-.164-.12-.31-.12a.508.508 0 0 0-.243.069.537.537 0 0 0-.196.168v1.4h-.342v-1.884h.234l.108.243c.113-.186.296-.276.55-.276.422 0 .632.248.632.751v1.167h-.34zM26.28 22.012h-.22v-.264h.22v-.394l.343-.129v.523h.528v.264h-.528v.936c0 .159.028.271.082.337.054.067.143.101.263.101a.634.634 0 0 0 .27-.065l.05.293a1.95 1.95 0 0 1-.464.054.514.514 0 0 1-.386-.167.593.593 0 0 1-.157-.42v-1.069zM28.343 20.786l-.405.586h-.252l.304-.586h.353zm-.561 2.847v-1.604h-.264v-.28h.61v1.884h-.346zM29.717 22.708a1.196 1.196 0 0 0-.225-.037.654.654 0 0 0-.422.13c-.109.088-.163.19-.163.308 0 .196.117.295.352.295.173 0 .326-.08.458-.24v-.456zm.032.708c-.135.168-.344.252-.625.252a.54.54 0 0 1-.392-.162.531.531 0 0 1-.167-.4.59.59 0 0 1 .257-.483c.17-.132.387-.2.65-.2.074 0 .153.017.245.045 0-.303-.139-.456-.416-.456-.213 0-.376.056-.491.169l-.142-.28a.879.879 0 0 1 .266-.133c.114-.036.224-.053.33-.053.276 0 .48.06.604.185.127.123.191.322.191.592v.676c0 .165.05.276.15.33v.168a.649.649 0 0 1-.311-.058.332.332 0 0 1-.149-.192zM30.469 23.52l.12-.317c.19.122.343.183.46.183.21 0 .315-.088.315-.26 0-.124-.101-.23-.305-.32a2.717 2.717 0 0 1-.316-.16.716.716 0 0 1-.141-.124.463.463 0 0 1-.12-.315.43.43 0 0 1 .172-.364.728.728 0 0 1 .45-.128c.139 0 .316.042.528.128l-.096.31a.663.663 0 0 0-.408-.158c-.08 0-.149.018-.204.057-.055.036-.084.085-.084.14 0 .122.07.213.21.277l.244.107a.856.856 0 0 1 .326.23.503.503 0 0 1 .103.321c0 .168-.06.302-.18.396-.121.097-.29.145-.504.145a1.16 1.16 0 0 1-.57-.147M34.406 22.184a.407.407 0 0 0-.353-.19.552.552 0 0 0-.444.202.76.76 0 0 0-.169.51c0 .453.21.68.63.68a.5.5 0 0 0 .195-.05c.074-.033.121-.07.141-.107v-1.045zm0 1.446v-.139c-.118.117-.29.175-.517.175a.745.745 0 0 1-.584-.253c-.15-.17-.224-.395-.224-.677 0-.281.087-.522.258-.723a.79.79 0 0 1 .615-.298c.197 0 .35.044.452.135v-.874h.34v2.654h-.34zM36.026 21.995a.53.53 0 0 0-.38.144.52.52 0 0 0-.17.342h1.064a.46.46 0 0 0-.13-.337.505.505 0 0 0-.384-.15m.826.729h-1.384c0 .22.062.39.185.507a.58.58 0 0 0 .42.156.724.724 0 0 0 .487-.167l.143.241a.653.653 0 0 1-.241.133 1.347 1.347 0 0 1-.456.075.862.862 0 0 1-.615-.241c-.187-.178-.281-.416-.281-.715 0-.31.095-.56.288-.748a.847.847 0 0 1 .612-.25c.274 0 .488.074.643.225.153.146.227.34.227.58a.73.73 0 0 1-.028.204"/>
        <mask id="d" fill="#fff">
            <use xlink:href="#c"/>
        </mask>
        <path fill="#FFF" d="M38.435 23.633h.359v-2.579h-.359zM40.549 23.633v-1.096c0-.202-.03-.341-.092-.422-.062-.08-.163-.12-.31-.12a.506.506 0 0 0-.243.069.53.53 0 0 0-.195.168v1.4h-.341v-1.884h.232l.109.243c.111-.186.294-.276.55-.276.422 0 .632.248.632.751v1.167h-.342zM41.25 23.52l.12-.317c.19.122.343.183.46.183.209 0 .313-.088.313-.26 0-.124-.1-.23-.303-.32a2.76 2.76 0 0 1-.317-.16.799.799 0 0 1-.143-.124.464.464 0 0 1-.118-.315.43.43 0 0 1 .172-.364.73.73 0 0 1 .45-.128c.14 0 .316.042.529.128l-.097.31a.662.662 0 0 0-.406-.158c-.08 0-.15.018-.207.057-.055.036-.082.085-.082.14 0 .122.069.213.21.277l.243.107a.85.85 0 0 1 .327.23.506.506 0 0 1 .102.321c0 .168-.06.302-.18.396-.123.097-.29.145-.503.145-.203 0-.393-.049-.57-.147M42.985 22.012h-.224v-.264h.224v-.394l.34-.129v.523h.527v.264h-.528v.936c0 .159.026.271.082.337.056.067.143.101.262.101a.647.647 0 0 0 .272-.065l.05.293a1.958 1.958 0 0 1-.464.054.512.512 0 0 1-.385-.167.581.581 0 0 1-.156-.42v-1.069zM44.67 21.036c.058 0 .108.02.15.061.04.04.061.088.061.145a.199.199 0 0 1-.061.146.203.203 0 0 1-.15.06.199.199 0 0 1-.149-.06.194.194 0 0 1-.061-.146c0-.058.02-.106.06-.145a.2.2 0 0 1 .15-.061zm-.187 2.597v-1.604h-.263v-.28h.604v1.884h-.341zM45.488 22.012h-.223v-.264h.223v-.394l.341-.129v.523h.527v.264h-.527v.936c0 .159.026.271.081.337.054.067.142.101.263.101a.633.633 0 0 0 .27-.065l.05.293c-.14.035-.294.054-.464.054a.507.507 0 0 1-.384-.167.584.584 0 0 1-.157-.42v-1.069zM47.145 21.748v1.202c0 .29.129.437.384.437a.542.542 0 0 0 .31-.096.457.457 0 0 0 .185-.22v-1.323h.34v1.885h-.34v-.262a.52.52 0 0 1-.23.204.728.728 0 0 1-.339.093c-.21 0-.372-.06-.483-.18-.113-.117-.168-.285-.168-.503v-1.237h.341zM50.278 21.901l-.168.236a.524.524 0 0 0-.185-.097.793.793 0 0 0-.257-.045.548.548 0 0 0-.442.19c-.11.128-.163.302-.163.523 0 .222.054.389.167.506.111.114.263.172.463.172a.79.79 0 0 0 .462-.173l.134.28a1.25 1.25 0 0 1-.68.175.875.875 0 0 1-.649-.26c-.17-.172-.256-.405-.256-.7 0-.299.088-.54.266-.723.179-.182.42-.27.73-.27.098 0 .205.018.323.06.114.04.2.083.255.126M51 21.036a.2.2 0 0 1 .149.061c.041.04.062.088.062.145 0 .057-.02.105-.062.146a.198.198 0 0 1-.15.06.2.2 0 0 1-.147-.06.193.193 0 0 1-.062-.146c0-.058.02-.106.06-.145.041-.041.09-.061.15-.061zm-.187 2.597v-1.604h-.264v-.28h.606v1.884h-.342zM51.929 22.686c0 .473.17.709.51.709.16 0 .285-.064.376-.19.088-.127.134-.3.134-.519 0-.466-.169-.7-.51-.7a.44.44 0 0 0-.372.186c-.092.124-.138.296-.138.514m-.36 0c0-.292.081-.526.24-.704a.8.8 0 0 1 .63-.267c.277 0 .489.084.642.256.152.173.227.41.227.715 0 .303-.077.542-.234.718-.155.175-.367.264-.634.264-.274 0-.487-.09-.64-.267-.153-.176-.23-.414-.23-.715M54.85 23.633v-1.096c0-.202-.032-.341-.094-.422-.062-.08-.163-.12-.308-.12a.506.506 0 0 0-.245.069.536.536 0 0 0-.196.168v1.4h-.342v-1.884h.236l.106.243c.113-.186.296-.276.552-.276.42 0 .63.248.63.751v1.167h-.34zM56.465 21.995a.53.53 0 0 0-.381.144.515.515 0 0 0-.167.342h1.062a.462.462 0 0 0-.129-.337.505.505 0 0 0-.385-.15m.827.729h-1.386c0 .22.063.39.186.507a.582.582 0 0 0 .42.156.719.719 0 0 0 .487-.167l.144.241a.66.66 0 0 1-.241.133c-.138.049-.29.075-.457.075a.862.862 0 0 1-.615-.241c-.187-.178-.28-.416-.28-.715 0-.31.095-.56.288-.748a.844.844 0 0 1 .611-.25c.274 0 .488.074.645.225a.777.777 0 0 1 .225.58c0 .073-.01.142-.027.204M57.552 23.52l.12-.317c.19.122.344.183.459.183.21 0 .316-.088.316-.26 0-.124-.102-.23-.305-.32a2.66 2.66 0 0 1-.316-.16.696.696 0 0 1-.142-.124.467.467 0 0 1-.12-.315.43.43 0 0 1 .173-.364.73.73 0 0 1 .45-.128c.14 0 .315.042.529.128l-.097.31a.665.665 0 0 0-.407-.158.349.349 0 0 0-.206.057c-.054.036-.082.085-.082.14 0 .122.069.213.21.277l.242.107a.848.848 0 0 1 .328.23.503.503 0 0 1 .102.321.48.48 0 0 1-.181.396c-.12.097-.289.145-.503.145-.202 0-.392-.049-.57-.147M60.657 21.372v.716h.923v.3h-.923v1.245h-.359v-2.579h1.623v.318zM62.551 21.036c.06 0 .109.02.15.061.041.04.061.088.061.145 0 .057-.02.105-.061.146a.2.2 0 0 1-.15.06.197.197 0 0 1-.148-.06.197.197 0 0 1-.063-.146c0-.058.022-.106.063-.145.04-.041.09-.061.148-.061zm-.186 2.597v-1.604H62.1v-.28h.605v1.884h-.34zM64.43 23.633v-1.096c0-.202-.032-.341-.094-.422-.061-.08-.164-.12-.309-.12a.505.505 0 0 0-.244.069.537.537 0 0 0-.196.168v1.4h-.34v-1.884h.232l.108.243c.114-.186.297-.276.552-.276.42 0 .63.248.63.751v1.167h-.34zM66.307 22.708a1.215 1.215 0 0 0-.225-.037.655.655 0 0 0-.422.13c-.11.088-.164.19-.164.308 0 .196.119.295.353.295.172 0 .325-.08.458-.24v-.456zm.032.708c-.137.168-.345.252-.626.252a.546.546 0 0 1-.393-.162.535.535 0 0 1-.164-.4.59.59 0 0 1 .256-.483c.17-.132.387-.2.651-.2.072 0 .154.017.244.045 0-.303-.139-.456-.416-.456-.213 0-.377.056-.492.169l-.143-.28a.873.873 0 0 1 .269-.133c.114-.036.222-.053.327-.053.277 0 .48.06.606.185.127.123.19.322.19.592v.676c0 .165.05.276.151.33v.168a.649.649 0 0 1-.312-.058.331.331 0 0 1-.148-.192zM68.367 23.633v-1.096c0-.202-.032-.341-.093-.422-.063-.08-.164-.12-.31-.12a.513.513 0 0 0-.244.069.564.564 0 0 0-.195.168v1.4h-.34v-1.884h.232l.108.243c.113-.186.296-.276.55-.276.422 0 .632.248.632.751v1.167h-.34zM70.64 21.901l-.167.236a.532.532 0 0 0-.184-.097.801.801 0 0 0-.26-.045.55.55 0 0 0-.441.19c-.11.128-.163.302-.163.523 0 .222.055.389.166.506.111.114.265.172.463.172.154 0 .308-.06.463-.173l.135.28a1.25 1.25 0 0 1-.68.175.877.877 0 0 1-.65-.26c-.17-.172-.257-.405-.257-.7 0-.299.089-.54.267-.723.179-.182.42-.27.73-.27.099 0 .206.018.322.06a.944.944 0 0 1 .257.126M71.362 21.036c.058 0 .11.02.15.061.041.04.06.088.06.145 0 .057-.019.105-.06.146a.2.2 0 0 1-.15.06.202.202 0 0 1-.149-.06.197.197 0 0 1-.062-.146c0-.058.021-.106.062-.145a.2.2 0 0 1 .149-.061zm-.187 2.597v-1.604h-.262v-.28h.603v1.884h-.34zM72.848 21.995a.535.535 0 0 0-.548.486h1.063a.466.466 0 0 0-.129-.337.507.507 0 0 0-.386-.15m.829.729H72.29c0 .22.06.39.185.507a.58.58 0 0 0 .418.156c.196 0 .36-.055.49-.167l.143.241a.648.648 0 0 1-.243.133 1.333 1.333 0 0 1-.454.075.862.862 0 0 1-.616-.241c-.187-.178-.282-.416-.282-.715 0-.31.097-.56.289-.748a.846.846 0 0 1 .612-.25c.273 0 .488.074.644.225a.77.77 0 0 1 .226.58c0 .073-.01.142-.026.204M75.105 22.07a.387.387 0 0 0-.223-.075.401.401 0 0 0-.318.163.597.597 0 0 0-.135.394v1.08h-.34v-1.884h.34v.3a.598.598 0 0 1 .554-.333c.062 0 .15.008.264.03l-.142.325zM76.543 22.708a1.209 1.209 0 0 0-.228-.037.65.65 0 0 0-.42.13c-.11.088-.163.19-.163.308 0 .196.117.295.353.295.172 0 .324-.08.458-.24v-.456zm.031.708c-.137.168-.345.252-.625.252a.542.542 0 0 1-.393-.162.533.533 0 0 1-.167-.4c0-.19.087-.353.257-.483.171-.132.387-.2.652-.2.072 0 .153.017.245.045 0-.303-.14-.456-.417-.456-.213 0-.376.056-.491.169l-.144-.28a1.075 1.075 0 0 1 .595-.186c.28 0 .483.06.607.185.127.123.19.322.19.592v.676c0 .165.05.276.15.33v.168a.643.643 0 0 1-.31-.058.335.335 0 0 1-.149-.192zM77.294 23.52l.12-.317c.19.122.342.183.46.183.21 0 .315-.088.315-.26 0-.124-.101-.23-.305-.32a2.627 2.627 0 0 1-.317-.16.765.765 0 0 1-.142-.124.477.477 0 0 1-.119-.315c0-.155.058-.277.173-.364a.726.726 0 0 1 .448-.128c.141 0 .318.042.53.128l-.096.31a.661.661 0 0 0-.408-.158.353.353 0 0 0-.205.057c-.057.036-.083.085-.083.14 0 .122.07.213.21.277l.243.107c.15.067.26.143.328.23a.507.507 0 0 1 .102.321.478.478 0 0 1-.181.396c-.121.097-.29.145-.504.145-.202 0-.39-.049-.57-.147M4.005 2.934c0 1.082-.897 1.96-2.002 1.96C.896 4.895 0 4.017 0 2.935 0 1.848.896.967 2.003.967c1.105 0 2.002.88 2.002 1.967M8.94 2.934c0 1.082-.898 1.96-2.003 1.96-1.106 0-2.002-.878-2.002-1.96 0-1.086.896-1.967 2.002-1.967 1.105 0 2.003.88 2.003 1.967M13.874 2.934c0 1.082-.896 1.96-2.004 1.96-1.103 0-2.003-.878-2.003-1.96 0-1.086.9-1.967 2.003-1.967 1.108 0 2.004.88 2.004 1.967M4.005 7.681c0 1.083-.897 1.964-2.002 1.964C.896 9.645 0 8.765 0 7.681c0-1.086.896-1.965 2.003-1.965 1.105 0 2.002.88 2.002 1.965M8.94 7.681c0 1.083-.898 1.964-2.003 1.964-1.106 0-2.002-.88-2.002-1.964 0-1.086.896-1.965 2.002-1.965 1.105 0 2.003.88 2.003 1.965M13.874 7.681c0 1.083-.896 1.964-2.004 1.964-1.103 0-2.003-.88-2.003-1.964 0-1.086.9-1.965 2.003-1.965 1.108 0 2.004.88 2.004 1.965M4.005 12.43c0 1.084-.897 1.964-2.002 1.964C.896 14.394 0 13.514 0 12.43c0-1.086.896-1.965 2.003-1.965 1.105 0 2.002.88 2.002 1.965M8.94 12.43c0 1.084-.898 1.964-2.003 1.964-1.106 0-2.002-.88-2.002-1.964 0-1.086.896-1.965 2.002-1.965 1.105 0 2.003.88 2.003 1.965M13.874 12.43c0 1.084-.896 1.964-2.004 1.964-1.103 0-2.003-.88-2.003-1.964 0-1.086.9-1.965 2.003-1.965 1.108 0 2.004.88 2.004 1.965M18.015.99h8.364v2.496h-5.27v3.073h4.924v2.473H21.11v5.408h-3.094zM36.903 9.452c0 3.572-2.585 5.207-5.25 5.207-2.91 0-5.15-1.875-5.15-5.027 0-3.172 2.117-5.19 5.331-5.19 3.032 0 5.069 2.056 5.069 5.01m-7.204.099c0 1.677.711 2.933 2.033 2.933 1.221 0 1.976-1.178 1.976-2.951 0-1.438-.57-2.916-1.976-2.916-1.465 0-2.033 1.498-2.033 2.934M47.486 13.024c0 1.876-.388 3.41-1.527 4.389-1.079.919-2.565 1.197-4.028 1.197-1.324 0-2.686-.26-3.584-.736l.612-2.316c.632.358 1.71.74 2.89.74 1.466 0 2.584-.76 2.584-2.577v-.617h-.041c-.59.798-1.547 1.256-2.686 1.256-2.46 0-4.213-1.956-4.213-4.748 0-3.154 2.056-5.149 4.518-5.149 1.363 0 2.219.579 2.728 1.396h.04l.101-1.176h2.686a42.92 42.92 0 0 0-.08 2.914v5.427zm-3.094-4.372c0-.179-.02-.376-.061-.557-.224-.8-.814-1.337-1.669-1.337-1.139 0-2.034.999-2.034 2.775 0 1.456.733 2.593 2.014 2.593.813 0 1.445-.519 1.648-1.22.082-.237.102-.556.102-.816V8.652zM57.235 12.086c0 .918.041 1.816.163 2.353h-2.79l-.18-.976h-.062c-.65.778-1.668 1.196-2.85 1.196-2.014 0-3.215-1.436-3.215-2.991 0-2.535 2.321-3.734 5.84-3.734v-.12c0-.537-.284-1.276-1.811-1.276-1.017 0-2.095.338-2.747.74l-.568-1.958c.69-.377 2.053-.878 3.865-.878 3.317 0 4.355 1.916 4.355 4.23v3.414zM54.243 9.83c-1.628 0-2.889.38-2.889 1.536 0 .777.528 1.157 1.22 1.157.753 0 1.406-.497 1.608-1.116.042-.16.06-.34.06-.52V9.832zM59.028 14.44V6.917h-1.323V4.683h1.323v-.38c0-1.178.367-2.474 1.241-3.272.793-.719 1.851-.979 2.767-.979.672 0 1.2.1 1.628.2l-.122 2.336a3.352 3.352 0 0 0-.997-.142c-1.017 0-1.444.78-1.444 1.737v.5h1.994v2.235H62.12v7.521h-3.092zM65.011 14.44h3.093V4.682h-3.093v9.756zM69.854.432l-2.482 3.033h-2.116l1.75-3.033h2.848zM69.326 7.795c0-1.217-.04-2.235-.08-3.112h2.684l.142 1.356h.06c.41-.638 1.406-1.576 3.075-1.576 2.035 0 3.56 1.337 3.56 4.21v5.766h-3.092V9.033c0-1.258-.448-2.115-1.567-2.115-.855 0-1.364.579-1.587 1.136-.082.2-.102.48-.102.759v5.626h-3.093V7.795z" mask="url(#d)"/>
    </g>
</svg>
