<svg xmlns="http://www.w3.org/2000/svg" viewBox="0 0 116 36">
    <g fill="none" fill-rule="evenodd" opacity=".5">
        <path stroke="#FFF" d="M110.778 1H5.222C2.9 1 1 2.912 1 5.25v25.5C1 33.087 2.9 35 5.222 35h105.556C113.1 35 115 33.087 115 30.75V5.25c0-2.338-1.9-4.25-4.222-4.25"/>
        <path fill="#FFF" d="M91.964 25.649h1.584V15.372h-1.584v10.277zm14.274-6.575l-1.817 4.456h-.054l-1.886-4.456h-1.707l2.828 6.227-1.612 3.465h1.652L108 19.074h-1.762zm-8.988 5.408c-.518 0-1.243-.252-1.243-.874 0-.792.902-1.097 1.681-1.097.696 0 1.024.146 1.447.344-.123.952-.97 1.627-1.885 1.627zm.192-5.634c-1.148 0-2.336.49-2.828 1.574l1.407.569c.3-.57.86-.754 1.448-.754.82 0 1.653.476 1.666 1.322v.106c-.287-.159-.902-.396-1.653-.396-1.516 0-3.06.806-3.06 2.313 0 1.376 1.244 2.262 2.637 2.262 1.065 0 1.653-.463 2.02-1.006h.056v.794h1.53v-3.94c0-1.825-1.408-2.844-3.223-2.844zm-9.794 1.477h-2.254v-3.523h2.254a1.81 1.81 0 0 1 1.857 1.761c0 .797-.673 1.762-1.857 1.762zm-.041-4.954H83.81v10.278h1.584v-3.894h2.213c1.756 0 3.483-1.231 3.483-3.192 0-1.96-1.727-3.192-3.483-3.192zM66.9 24.483c-1.094 0-2.01-.887-2.01-2.105 0-1.233.916-2.133 2.01-2.133 1.08 0 1.93.9 1.93 2.133 0 1.218-.85 2.105-1.93 2.105zm1.82-4.834h-.055c-.356-.41-1.04-.782-1.901-.782-1.807 0-3.463 1.537-3.463 3.51 0 1.96 1.656 3.484 3.463 3.484.86 0 1.545-.37 1.901-.795h.055v.503c0 1.339-.74 2.053-1.93 2.053-.97 0-1.573-.675-1.82-1.245l-1.38.557A3.44 3.44 0 0 0 66.79 29c1.862 0 3.435-1.06 3.435-3.643V19.08H68.72v.57zm2.6 6h1.587V15.372H71.32v10.277zm3.926-3.39c-.04-1.352 1.082-2.04 1.888-2.04.63 0 1.164.305 1.342.741l-3.23 1.299zm4.926-1.166c-.301-.781-1.218-2.226-3.092-2.226-1.86 0-3.407 1.418-3.407 3.498 0 1.96 1.533 3.496 3.585 3.496 1.655 0 2.613-.98 3.01-1.55l-1.231-.795c-.411.583-.972.967-1.78.967-.806 0-1.381-.357-1.75-1.06l4.83-1.933-.165-.397zm-38.48-1.152v1.483h3.667c-.109.835-.396 1.444-.834 1.867-.534.517-1.369 1.087-2.832 1.087-2.258 0-4.023-1.762-4.023-3.947s1.765-3.948 4.023-3.948c1.218 0 2.107.464 2.763 1.06l1.081-1.046C44.62 15.65 43.403 15 41.693 15 38.6 15 36 17.438 36 20.431s2.6 5.43 5.693 5.43c1.669 0 2.927-.53 3.912-1.523 1.013-.98 1.328-2.358 1.328-3.47 0-.344-.027-.662-.083-.927h-5.157zm9.41 4.542c-1.095 0-2.04-.874-2.04-2.118 0-1.26.945-2.12 2.04-2.12 1.094 0 2.038.86 2.038 2.12 0 1.244-.944 2.118-2.039 2.118zm0-5.616c-1.998 0-3.626 1.471-3.626 3.498 0 2.013 1.628 3.496 3.625 3.496 1.999 0 3.627-1.483 3.627-3.496 0-2.027-1.628-3.498-3.627-3.498zm7.91 5.616c-1.095 0-2.04-.874-2.04-2.118 0-1.26.945-2.12 2.04-2.12 1.094 0 2.038.86 2.038 2.12 0 1.244-.944 2.118-2.039 2.118zm0-5.616c-1.998 0-3.626 1.471-3.626 3.498 0 2.013 1.628 3.496 3.625 3.496 1.998 0 3.626-1.483 3.626-3.496 0-2.027-1.628-3.498-3.626-3.498zM36.632 11.386h.873c.568 0 1.019-.165 1.35-.496.333-.33.499-.794.499-1.39 0-.59-.166-1.053-.498-1.386-.332-.332-.783-.499-1.351-.499h-.873v3.77zM36 12V7h1.505c.756 0 1.362.232 1.815.695.454.463.68 1.065.68 1.805s-.226 1.342-.68 1.805c-.453.463-1.059.695-1.815.695H36z"/>
        <path stroke="#FFF" stroke-width=".2" d="M36.632 11.386h.873c.568 0 1.019-.165 1.35-.496.333-.33.499-.794.499-1.39 0-.59-.166-1.053-.498-1.386-.332-.332-.783-.499-1.351-.499h-.873v3.77zM36 12V7h1.505c.756 0 1.362.232 1.815.695.454.463.68 1.065.68 1.805s-.226 1.342-.68 1.805c-.453.463-1.059.695-1.815.695H36z"/>
        <path fill="#FFF" d="M41 12h.771V7H41z"/>
        <path stroke="#FFF" stroke-width=".2" d="M41 12h.771V7H41z"/>
        <path fill="#FFF" d="M43.534 12c-.32 0-.63-.113-.935-.34-.305-.228-.505-.546-.599-.956l.515-.228c.062.263.187.485.377.665.191.18.404.271.642.271.245 0 .455-.07.629-.21a.695.695 0 0 0 .26-.572c0-.268-.086-.473-.26-.619-.174-.144-.45-.279-.826-.404-.388-.133-.683-.306-.883-.518-.2-.212-.301-.482-.301-.812 0-.344.125-.642.375-.896.25-.253.574-.381.975-.381.373 0 .675.101.908.304.233.203.385.425.454.665l-.515.234a.843.843 0 0 0-.273-.421.816.816 0 0 0-.562-.193.822.822 0 0 0-.555.197.62.62 0 0 0-.23.491c0 .178.07.329.211.45.142.124.35.234.623.332.217.076.398.149.544.22.145.072.292.167.441.285.15.118.261.265.338.44.075.177.113.38.113.613 0 .231-.044.439-.132.621a1.145 1.145 0 0 1-.35.435 1.643 1.643 0 0 1-.985.327"/>
        <path stroke="#FFF" stroke-width=".2" d="M43.534 12c-.32 0-.63-.113-.935-.34-.305-.228-.505-.546-.599-.956l.515-.228c.062.263.187.485.377.665.191.18.404.271.642.271.245 0 .455-.07.629-.21a.695.695 0 0 0 .26-.572c0-.268-.086-.473-.26-.619-.174-.144-.45-.279-.826-.404-.388-.133-.683-.306-.883-.518-.2-.212-.301-.482-.301-.812 0-.344.125-.642.375-.896.25-.253.574-.381.975-.381.373 0 .675.101.908.304.233.203.385.425.454.665l-.515.234a.843.843 0 0 0-.273-.421.816.816 0 0 0-.562-.193.822.822 0 0 0-.555.197.62.62 0 0 0-.23.491c0 .178.07.329.211.45.142.124.35.234.623.332.217.076.398.149.544.22.145.072.292.167.441.285.15.118.261.265.338.44.075.177.113.38.113.613 0 .231-.044.439-.132.621a1.145 1.145 0 0 1-.35.435 1.643 1.643 0 0 1-.985.327z"/>
        <path fill="#FFF" d="M47.59 9.36h.987c.248 0 .447-.09.596-.272a.921.921 0 0 0 0-1.201.732.732 0 0 0-.596-.273h-.987V9.36zm0 2.64H47V7h1.564c.389 0 .726.14 1.01.423.284.281.426.636.426 1.064 0 .429-.142.784-.426 1.065a1.384 1.384 0 0 1-1.01.423h-.974V12z"/>
        <path stroke="#FFF" stroke-width=".2" d="M47.59 9.36h.987c.248 0 .447-.09.596-.272a.921.921 0 0 0 0-1.201.732.732 0 0 0-.596-.273h-.987V9.36zm0 2.64H47V7h1.564c.389 0 .726.14 1.01.423.284.281.426.636.426 1.064 0 .429-.142.784-.426 1.065a1.384 1.384 0 0 1-1.01.423h-.974V12z"/>
        <path fill="#FFF" d="M52.178 10.874c.36.359.8.537 1.322.537a1.8 1.8 0 0 0 1.321-.537c.36-.36.54-.817.54-1.374 0-.557-.18-1.015-.54-1.374a1.8 1.8 0 0 0-1.321-.538 1.8 1.8 0 0 0-1.322.538c-.36.359-.54.817-.54 1.374 0 .557.18 1.015.54 1.374m3.105.4c-.478.484-1.072.726-1.783.726-.711 0-1.306-.242-1.783-.726C51.238 10.791 51 10.2 51 9.5s.238-1.291.717-1.775C52.194 7.242 52.789 7 53.5 7c.707 0 1.3.243 1.78.728.48.486.72 1.076.72 1.772 0 .7-.24 1.29-.717 1.774"/>
        <path stroke="#FFF" stroke-width=".2" d="M52.178 10.874c.36.359.8.537 1.322.537a1.8 1.8 0 0 0 1.321-.537c.36-.36.54-.817.54-1.374 0-.557-.18-1.015-.54-1.374a1.8 1.8 0 0 0-1.321-.538 1.8 1.8 0 0 0-1.322.538c-.36.359-.54.817-.54 1.374 0 .557.18 1.015.54 1.374zm3.105.4c-.478.484-1.072.726-1.783.726-.711 0-1.306-.242-1.783-.726C51.238 10.791 51 10.2 51 9.5s.238-1.291.717-1.775C52.194 7.242 52.789 7 53.5 7c.707 0 1.3.243 1.78.728.48.486.72 1.076.72 1.772 0 .7-.24 1.29-.717 1.774z"/>
        <path fill="#FFF" d="M57 12V7h.811l2.521 3.89h.03l-.03-.964V7H61v5h-.696l-2.637-4.078h-.03l.03.964V12z"/>
        <path stroke="#FFF" stroke-width=".2" d="M57 12V7h.811l2.521 3.89h.03l-.03-.964V7H61v5h-.696l-2.637-4.078h-.03l.03.964V12z"/>
        <path fill="#FFF" d="M62 12h.771V7H62z"/>
        <path stroke="#FFF" stroke-width=".2" d="M62 12h.771V7H62z"/>
        <path fill="#FFF" d="M64.563 11.386h1.133a.636.636 0 0 0 .526-.26.893.893 0 0 0 .202-.564.87.87 0 0 0-.208-.563.672.672 0 0 0-.545-.255h-1.108v1.642zm0-2.242h1.022c.213 0 .384-.08.512-.24a.823.823 0 0 0 .005-1.05.594.594 0 0 0-.491-.239h-1.048v1.53zM64 12V7h1.585c.343 0 .64.13.891.388.252.259.377.583.377.974 0 .237-.054.447-.163.628a1.06 1.06 0 0 1-.431.412v.028c.216.084.393.228.533.433.138.205.208.443.208.713 0 .41-.132.749-.395 1.019a1.26 1.26 0 0 1-.934.405H64z"/>
        <path stroke="#FFF" stroke-width=".2" d="M64.563 11.386h1.133a.636.636 0 0 0 .526-.26.893.893 0 0 0 .202-.564.87.87 0 0 0-.208-.563.672.672 0 0 0-.545-.255h-1.108v1.642zm0-2.242h1.022c.213 0 .384-.08.512-.24a.823.823 0 0 0 .005-1.05.594.594 0 0 0-.491-.239h-1.048v1.53zM64 12V7h1.585c.343 0 .64.13.891.388.252.259.377.583.377.974 0 .237-.054.447-.163.628a1.06 1.06 0 0 1-.431.412v.028c.216.084.393.228.533.433.138.205.208.443.208.713 0 .41-.132.749-.395 1.019a1.26 1.26 0 0 1-.934.405H64z"/>
        <path fill="#FFF" d="M68 12V7h.687v4.386H71V12z"/>
        <path stroke="#FFF" stroke-width=".2" d="M68 12V7h.687v4.386H71V12z"/>
        <path fill="#FFF" d="M75 7.614h-2.34V9.2h2.11V9.8h-2.11v1.585H75V12h-3V7h3z"/>
        <path stroke="#FFF" stroke-width=".2" d="M75 7.614h-2.34V9.2h2.11V9.8h-2.11v1.585H75V12h-3V7h3z"/>
        <path fill="#FFF" d="M80 7.614h-2.34V9.2h2.11V9.8h-2.11v1.585H80V12h-3V7h3z"/>
        <path stroke="#FFF" stroke-width=".2" d="M80 7.614h-2.34V9.2h2.11V9.8h-2.11v1.585H80V12h-3V7h3z"/>
        <path fill="#FFF" d="M81 12V7h.811l2.521 3.89h.03l-.03-.964V7H85v5h-.696l-2.637-4.078h-.03l.03.964V12z"/>
        <path stroke="#FFF" stroke-width=".2" d="M81 12V7h.811l2.521 3.89h.03l-.03-.964V7H85v5h-.696l-2.637-4.078h-.03l.03.964V12z"/>
        <g fill="#FFF" stroke="#0040A8">
            <path d="M9.386 7.336C9.143 7.597 9 8.002 9 8.526v18.713c0 .524.143.928.386 1.189l.062.06 10.324-10.482v-.247L9.448 7.275l-.062.061zM23.213 21.501l-3.441-3.495v-.247l3.442-3.496.077.045 4.078 2.352c1.164.672 1.164 1.772 0 2.444l-4.078 2.352-.078.045z"/>
            <path d="M23.291 21.456l-3.52-3.574L9.385 28.428c.385.413 1.019.463 1.733.051l12.173-7.023M23.291 14.308L11.118 7.285c-.714-.413-1.348-.362-1.733.051l10.386 10.546 3.52-3.574z"/>
        </g>
    </g>
</svg>
