<?xml version="1.0" encoding="UTF-8"?>
<svg width="13px" height="130px" viewBox="0 0 13 130" version="1.1" xmlns="http://www.w3.org/2000/svg" xmlns:xlink="http://www.w3.org/1999/xlink">
    <!-- Generator: Sketch 52.5 (67469) - http://www.bohemiancoding.com/sketch -->
    <title>Group</title>
    <desc>Created with Sketch.</desc>
    <defs>
        <polygon id="path-1" points="0.292657576 0.101280199 9.78896061 0.101280199 9.78896061 80.2491457 0.292657576 80.2491457"></polygon>
        <polygon id="path-3" points="0 129.212121 13 129.212121 13 0.393939394 0 0.393939394"></polygon>
    </defs>
    <g id="Landing-v-1.0" stroke="none" stroke-width="1" fill="none" fill-rule="evenodd">
        <g id="Landing---Desktop" transform="translate(-29.000000, -543.000000)">
            <g id="Group" transform="translate(29.000000, 543.000000)">
                <path d="M9.00664535,125.017339 L4.79482659,126.454545 L4.79482659,125.917371 L7.84587222,124.955707 C8.10702558,124.876936 8.33893306,124.798165 8.53623977,124.745287 C8.31874928,124.694961 8.09343242,124.625307 7.84587222,124.554923 L4.79482659,123.545122 L4.79482659,123.038581 L9.00664535,124.506056 L9.00664535,125.017339 Z M4.79482659,120.144474 L9.00664535,120.144474 L9.00664535,119.638662 L4.79482659,119.638662 L4.79482659,120.144474 Z M7.34168971,114.670251 L6.85933863,114.670251 L6.85933863,113.083525 L8.4176086,113.083525 C8.64539694,113.333696 8.80315993,113.573291 8.91190517,113.822733 C9.02065042,114.088585 9.06060606,114.351155 9.06060606,114.622478 C9.06060606,114.988253 8.99058071,115.325947 8.81881265,115.612951 C8.64539694,115.9284 8.38959846,116.15122 8.04359085,116.300009 C7.71817894,116.456822 7.33345143,116.526841 6.90835638,116.526841 C6.50303318,116.526841 6.12366056,116.456822 5.76323597,116.300009 C5.40816626,116.15122 5.16060606,115.93387 4.98471886,115.639572 C4.8100674,115.360956 4.72727273,115.028732 4.72727273,114.670251 C4.72727273,114.395282 4.75116373,114.14584 4.86567577,113.936513 C4.96453508,113.71734 5.11158832,113.538646 5.27923724,113.416114 C5.45677209,113.293216 5.68456043,113.205328 5.96878097,113.132392 L6.10759592,113.582408 C5.892165,113.634922 5.734402,113.704941 5.60588489,113.786994 C5.49054903,113.879988 5.37809655,113.997415 5.30889503,114.14584 C5.22939567,114.298641 5.19644256,114.477699 5.19644256,114.670251 C5.19644256,114.885048 5.22939567,115.081246 5.31919288,115.247176 C5.38798249,115.405447 5.50661367,115.548402 5.61577083,115.639572 C5.75335004,115.740954 5.892165,115.819725 6.02892038,115.867498 C6.30160733,115.971797 6.58582786,116.015923 6.8791105,116.015923 C7.2547759,116.015923 7.57524484,115.971797 7.84587222,115.849993 C8.07736778,115.732201 8.27879364,115.578671 8.39371759,115.352204 C8.51234877,115.13376 8.57537159,114.897082 8.57537159,114.648735 C8.57537159,114.441961 8.52841341,114.23701 8.43779237,114.023672 C8.33893306,113.813616 8.24213331,113.678319 8.14327399,113.560163 L7.34168971,113.560163 L7.34168971,114.670251 Z M4.79482659,109.898403 L9.00664535,109.898403 L9.00664535,109.396602 L4.79482659,109.396602 L4.79482659,109.898403 Z M9.00664535,106.183035 L4.79482659,106.183035 L4.79482659,105.677588 L8.49669605,105.677588 L8.49669605,103.851631 L9.00664535,103.851631 L9.00664535,106.183035 Z M9.00664535,101.298501 L4.79482659,99.8663995 L4.79482659,99.3325069 L9.00664535,97.8037651 L9.00664535,98.3712083 L7.73300784,98.8088253 L7.73300784,100.363459 L9.00664535,100.778466 L9.00664535,101.298501 Z M7.27454776,100.228892 L7.27454776,98.9561563 L6.10759592,99.3496469 C5.75335004,99.4670741 5.45677209,99.5633498 5.22939567,99.612217 C5.50661367,99.6508732 5.76323597,99.7259974 6.02892038,99.8168029 L7.27454776,100.228892 Z M9.00664535,95.0464137 L4.79482659,95.0464137 L4.79482659,93.743774 C4.79482659,93.4688047 4.8100674,93.2496315 4.85002304,93.0924541 C4.90563141,92.8820333 5.00860986,92.6945874 5.16060606,92.5425155 C5.34390771,92.3444939 5.58570112,92.2048211 5.87610036,92.1052633 C6.1664996,91.9998705 6.50303318,91.952462 6.8791105,91.952462 C7.20864155,91.952462 7.4903906,91.9911182 7.73300784,92.0662424 C7.97850847,92.1227679 8.17210796,92.2048211 8.33893306,92.3069317 C8.49669605,92.4196181 8.62562507,92.5286577 8.72407247,92.6424381 C8.81881265,92.7686176 8.8917214,92.9225129 8.94774168,93.0924541 C8.99058071,93.2671362 9.00664535,93.4688047 9.00664535,93.7029297 L9.00664535,95.0464137 Z M8.49669605,94.5435189 L8.49669605,93.743774 C8.49669605,93.5078255 8.47651227,93.3240264 8.43779237,93.1621082 C8.38959846,93.0228001 8.29897742,92.9225129 8.21618274,92.8386363 C8.07736778,92.7244912 7.91136652,92.6249334 7.67410416,92.572784 C7.45043496,92.494013 7.18392672,92.4673913 6.86963648,92.4673913 C6.43012444,92.4673913 6.09359085,92.5286577 5.86209529,92.6635895 C5.61577083,92.7908631 5.45677209,92.934912 5.37809655,93.1187111 C5.31919288,93.2583839 5.27923724,93.4688047 5.27923724,93.7649255 L5.27923724,94.5435189 L8.49669605,94.5435189 Z M6.94831202,89.0499677 C6.25670872,89.0499677 5.7043323,88.8800265 5.30889503,88.5525432 C4.91304586,88.2166722 4.72727273,87.7870782 4.72727273,87.2725136 C4.72727273,86.9224201 4.8100674,86.6248406 4.98471886,86.3323666 C5.18655663,86.0661496 5.44688616,85.8480705 5.7731219,85.7073038 C6.10759592,85.5552319 6.49314725,85.4848485 6.89847045,85.4848485 C7.33345143,85.4848485 7.71817894,85.5669017 8.05347678,85.7160561 C8.38959846,85.8735982 8.64539694,86.0789135 8.81881265,86.3586236 C8.99058071,86.6514623 9.06060606,86.9311724 9.06060606,87.2725136 C9.06060606,87.626254 8.99058071,87.9329505 8.80315993,88.2075551 C8.6054413,88.4963823 8.33893306,88.7016976 8.00445904,88.8450171 C7.66792545,88.9854192 7.32150593,89.0499677 6.94831202,89.0499677 Z M6.94831202,88.5488964 C7.4903906,88.5488964 7.87553001,88.4267283 8.16592925,88.1809335 C8.45756424,87.9453497 8.6054413,87.6350063 8.6054413,87.2725136 C8.6054413,86.8961631 8.45756424,86.5982189 8.16592925,86.3498713 C7.86564408,86.1139228 7.45043496,85.9877433 6.89847045,85.9877433 C6.55905346,85.9877433 6.25670872,86.0395279 6.00914852,86.153673 C5.75335004,86.2448432 5.54986462,86.4074908 5.40816626,86.6036891 C5.25905346,86.7874882 5.19644256,87.0223426 5.19644256,87.255009 C5.19644256,87.6207838 5.34390771,87.9099756 5.60588489,88.1725458 C5.87610036,88.417976 6.32549833,88.5488964 6.94831202,88.5488964 Z" id="Fill-1" fill="#9B9B9B"></path>
                <g id="Group-5" transform="translate(1.575758, 0.000000)">
                    <mask id="mask-2" fill="white">
                        <use xlink:href="#path-1"></use>
                    </mask>
                    <g id="Clip-4"></g>
                    <path d="M9.72396061,56.7591117 L5.9988697,56.7591117 L5.9988697,55.5771424 C5.9988697,55.297154 6.02250606,55.0923919 6.05520303,54.9481777 C6.11153636,54.7544242 6.19347576,54.5749822 6.32899091,54.447648 C6.49444545,54.2627015 6.69299091,54.1265604 6.96323333,54.0340872 C7.22165758,53.9375774 7.51474848,53.8891391 7.84447576,53.8891391 C8.12771818,53.8891391 8.38377879,53.9247339 8.59571818,53.9860158 C8.82183939,54.0454628 9.00620303,54.1265604 9.14368788,54.2322441 C9.28944545,54.327653 9.39383939,54.4267314 9.48247576,54.5393873 C9.57308182,54.6542449 9.62941515,54.7892852 9.66762727,54.9481777 C9.72396061,55.1279867 9.72396061,55.3096306 9.72396061,55.5125579 L9.72396061,56.7591117 Z M9.28944545,56.3029838 L9.28944545,55.5683354 C9.28944545,55.3360515 9.26659697,55.1555085 9.21341515,55.0186335 C9.17599091,54.9004732 9.10902121,54.7892852 9.02432424,54.7188294 C8.9069303,54.6006692 8.75999091,54.5305803 8.55356667,54.4601245 C8.36447576,54.3988427 8.12771818,54.3738896 7.82517273,54.3738896 C7.44305152,54.3738896 7.14641515,54.438841 6.93841515,54.5485612 C6.73002121,54.6626849 6.58899091,54.8120365 6.51256667,54.988543 C6.46765758,55.1103728 6.44244545,55.3096306 6.44244545,55.5771424 L6.44244545,56.3029838 L9.28944545,56.3029838 Z M9.72396061,53.2513674 L5.9988697,53.2513674 L5.9988697,50.7377103 L6.44244545,50.7377103 L6.44244545,52.7989091 L7.58565758,52.7989091 L7.58565758,50.8646775 L8.02371818,50.8646775 L8.02371818,52.7989091 L9.28944545,52.7989091 L9.28944545,50.6621171 L9.72396061,50.6621171 L9.72396061,53.2513674 Z M8.41529394,46.2028526 L8.55356667,45.7415874 C8.95459697,45.8259875 9.25162727,46.0090992 9.48247576,46.2465205 C9.6908697,46.5195367 9.78896061,46.808699 9.78896061,47.1837293 C9.78896061,47.5484848 9.72396061,47.8482889 9.55417273,48.0893798 C9.39383939,48.3220307 9.15708182,48.5073441 8.83523333,48.6306418 C8.52874848,48.7447655 8.19468788,48.8067812 7.82517273,48.8067812 C7.45880909,48.8067812 7.11765758,48.7392611 6.83047576,48.5950469 C6.5429,48.4717493 6.31599091,48.2776289 6.16511212,48.0101171 C6.02250606,47.7635218 5.93780909,47.487203 5.93780909,47.1580423 C5.93780909,46.8318174 6.03235455,46.5338481 6.22105152,46.2872528 C6.41802121,46.0579045 6.68314242,45.8854346 7.02311212,45.7973649 L7.14641515,46.2410162 C6.86277879,46.3257833 6.66029394,46.4494479 6.56220303,46.594396 C6.41802121,46.7562242 6.35774848,46.946308 6.35774848,47.1837293 C6.35774848,47.4516081 6.4369303,47.675819 6.56968788,47.8482889 C6.69299091,48.0240614 6.89153636,48.1513956 7.12159697,48.2214844 C7.35441515,48.2956098 7.59117273,48.3220307 7.82517273,48.3220307 C8.15647576,48.3220307 8.43026364,48.2868028 8.66505152,48.2038705 C8.9069303,48.1194703 9.09129394,47.9789257 9.20947576,47.7991166 C9.3229303,47.6185737 9.36508182,47.4222516 9.36508182,47.2178564 C9.36508182,46.9606193 9.29929394,46.7382433 9.14368788,46.5588012 C8.97744545,46.3789921 8.73280909,46.2465205 8.41529394,46.2028526 Z M7.91577879,45.3056422 C7.29808182,45.3056422 6.80644545,45.152621 6.45623333,44.835203 C6.11705152,44.5328302 5.93780909,44.1361494 5.93780909,43.6480963 C5.93780909,43.3277426 6.02250606,43.0334429 6.18402121,42.7817103 C6.34435455,42.5222715 6.56968788,42.3299859 6.88208182,42.1931108 C7.16532424,42.0514653 7.50056667,41.9901835 7.87835455,41.9901835 C8.25102121,41.9901835 8.59571818,42.0514653 8.8848697,42.1964134 C9.1819,42.3512694 9.41196061,42.5453898 9.57308182,42.8040946 C9.72396061,43.0547264 9.78896061,43.3482922 9.78896061,43.6480963 C9.78896061,43.9743213 9.72396061,44.268621 9.53526364,44.5328302 C9.36508182,44.7915351 9.14368788,44.9801511 8.85414242,45.1126227 C8.55356667,45.2443603 8.24156667,45.3056422 7.91577879,45.3056422 Z M7.91971818,44.8315334 C8.3739303,44.8315334 8.72177879,44.7390602 8.9869,44.5152163 C9.23232424,44.2715567 9.36508182,43.9867978 9.36508182,43.6480963 C9.36508182,43.3101287 9.23232424,43.0191316 8.97744545,42.7985903 C8.72177879,42.5754803 8.34517273,42.4697966 7.86929394,42.4697966 C7.57974848,42.4697966 7.30753636,42.509428 7.07668788,42.6048369 C6.84347576,42.7072179 6.67565758,42.8396895 6.56220303,43.0191316 C6.41802121,43.2007754 6.35774848,43.4070054 6.35774848,43.6480963 C6.35774848,43.9691839 6.49444545,44.2422001 6.72056667,44.4759518 C6.96323333,44.7214462 7.3638697,44.8315334 7.91971818,44.8315334 Z M9.72396061,41.410391 L5.9988697,41.410391 L5.9988697,40.956098 L9.28944545,40.956098 L9.28944545,39.2442424 L9.72396061,39.2442424 L9.72396061,41.410391 Z M7.91577879,38.8332503 C7.29808182,38.8332503 6.80644545,38.6769265 6.45623333,38.3661137 C6.11705152,38.0630071 5.93780909,37.6655924 5.93780909,37.1757044 C5.93780909,36.8546169 6.02250606,36.5555467 6.18402121,36.3137219 C6.34435455,36.055017 6.56968788,35.8524566 6.88208182,35.7082424 C7.16532424,35.5794404 7.50056667,35.5089846 7.87835455,35.5089846 C8.25102121,35.5089846 8.59571818,35.5794404 8.8848697,35.7339294 C9.1819,35.857594 9.41196061,36.0818049 9.57308182,36.3228958 C9.72396061,36.6010494 9.78896061,36.8814047 9.78896061,37.1757044 C9.78896061,37.5100025 9.72396061,37.7954952 9.53526364,38.0505305 C9.36508182,38.3066667 9.14368788,38.5070253 8.85414242,38.6409647 C8.55356667,38.7774728 8.24156667,38.8332503 7.91577879,38.8332503 Z M7.91971818,38.3661137 C8.3739303,38.3661137 8.72177879,38.2497883 8.9869,38.0160365 C9.23232424,37.7954952 9.36508182,37.5100025 9.36508182,37.1757044 C9.36508182,36.8333333 9.23232424,36.5485745 8.97744545,36.3228958 C8.72177879,36.1038223 8.34517273,35.9849282 7.86929394,35.9849282 C7.57974848,35.9849282 7.30753636,36.0337335 7.07668788,36.1162989 C6.84347576,36.2223495 6.67565758,36.3621602 6.56220303,36.5485745 C6.41802121,36.7371905 6.35774848,36.9459892 6.35774848,37.1757044 C6.35774848,37.4956912 6.49444545,37.7866883 6.72056667,38.0160365 C6.96323333,38.2497883 7.3638697,38.3661137 7.91971818,38.3661137 Z M9.72396061,34.9379992 L5.9988697,34.9379992 L5.9988697,34.2470187 L8.64614242,33.4265023 L9.20947576,33.257335 C9.05859697,33.2323819 8.86596061,33.1479817 8.59571818,33.0830303 L5.9988697,32.2460008 L5.9988697,31.6229074 L9.72396061,31.6229074 L9.72396061,32.0720631 L6.6079,32.0720631 L9.72396061,33.0830303 L9.72396061,33.4830137 L6.56220303,34.4980174 L9.72396061,34.4980174 L9.72396061,34.9379992 Z M9.72396061,30.9014695 L5.9988697,30.9014695 L5.9988697,29.5855608 C5.9988697,29.3283238 6.04180909,29.1176903 6.11705152,28.9532935 C6.19347576,28.7966027 6.30732424,28.6674338 6.46765758,28.588538 C6.62208182,28.4967987 6.78753636,28.4391864 6.96323333,28.4391864 C7.11765758,28.4391864 7.26971818,28.4967987 7.41074848,28.5705571 C7.55296061,28.6498198 7.65538485,28.7679801 7.75544545,28.9272395 C7.82123333,28.7122026 7.91971818,28.5705571 8.08123333,28.4391864 C8.24156667,28.3349705 8.44365758,28.2769913 8.64614242,28.2769913 C8.82774848,28.2769913 8.9869,28.3067148 9.14368788,28.3705654 C9.28944545,28.4391864 9.41196061,28.5323935 9.48247576,28.6329398 C9.57308182,28.7334861 9.62941515,28.8615542 9.66762727,29.0189788 C9.72396061,29.1771374 9.72396061,29.3587812 9.72396061,29.5815243 L9.72396061,30.9014695 Z M7.57974848,30.4526808 L7.57974848,29.6875749 C7.57974848,29.4820789 7.55296061,29.3356629 7.53405152,29.240254 C7.50056667,29.1345704 7.43950606,29.0465006 7.32959697,28.9764118 C7.25041515,28.9272395 7.14641515,28.905956 7.02311212,28.905956 C6.89153636,28.905956 6.78753636,28.9239369 6.68314242,28.9764118 C6.58899091,29.0321893 6.52399091,29.1176903 6.49444545,29.2222731 C6.45623333,29.317682 6.44244545,29.4971241 6.44244545,29.7444533 L6.44244545,30.4526808 L7.57974848,30.4526808 Z M9.28944545,30.4526808 L9.28944545,29.5815243 C9.28944545,29.4343744 9.28944545,29.317682 9.28038485,29.2615376 C9.25162727,29.1558539 9.21341515,29.0677841 9.16653636,28.9976953 C9.1188697,28.9239369 9.04323333,28.8615542 8.97744545,28.8145836 C8.86596061,28.7786218 8.77496061,28.7610079 8.64614242,28.7610079 C8.51535455,28.7610079 8.39323333,28.7822914 8.28332424,28.8615542 C8.18523333,28.9239369 8.11274848,29.0116397 8.07138485,29.1235616 C8.04262727,29.2351166 8.01426364,29.4200631 8.01426364,29.6387696 L8.01426364,30.4526808 L9.28944545,30.4526808 Z M5.9988697,27.5628925 L9.72396061,27.5628925 L9.72396061,27.1067646 L5.9988697,27.1067646 L5.9988697,27.5628925 Z M9.72396061,26.6755899 L5.9988697,25.3435351 L5.9988697,24.8433724 L9.72396061,23.430587 L9.72396061,23.9446941 L8.59571818,24.3534844 L8.59571818,25.8014977 L9.72396061,26.1890046 L9.72396061,26.6755899 Z M8.20414242,25.6697601 L8.20414242,24.4995334 L7.16532424,24.855115 C6.84347576,24.9699726 6.60041515,25.0543728 6.38256667,25.1079485 C6.62602121,25.1494147 6.88208182,25.2081279 7.11765758,25.283721 L8.20414242,25.6697601 Z M2.87965758,80.2491457 L2.85129394,79.8132005 C3.04038485,79.7875135 3.19953636,79.7431117 3.30944545,79.6693533 C3.42605152,79.5900905 3.52020303,79.4700955 3.59662727,79.3174413 C3.66280909,79.1721262 3.71047576,78.9871797 3.71047576,78.7842524 C3.71047576,78.6169199 3.67226364,78.4554587 3.63011212,78.3174828 C3.56826364,78.1769381 3.48908182,78.0907032 3.4079303,78.0206144 C3.28659697,77.9619012 3.19953636,77.9182333 3.06323333,77.9182333 C2.96868788,77.9182333 2.85129394,77.9406177 2.75635455,78.0206144 C2.69056667,78.0730892 2.59641515,78.1769381 2.54835455,78.3317941 C2.51132424,78.4231665 2.45380909,78.6349008 2.37856667,78.9523188 C2.29938485,79.2763421 2.20483939,79.4844068 2.1378697,79.6073375 C2.04332424,79.7875135 1.9298697,79.9192511 1.79435455,79.9897069 C1.66159697,80.0774097 1.49180909,80.1041976 1.31217273,80.1041976 C1.13174848,80.1041976 0.971415152,80.0550253 0.807142424,79.963653 C0.626718182,79.8612719 0.514051515,79.7218281 0.415960606,79.5317443 C0.339536364,79.3376239 0.292657576,79.1233209 0.292657576,78.8726891 C0.292657576,78.6349008 0.339536364,78.4055525 0.433687879,78.212533 C0.519960606,78.015477 0.646021212,77.8613549 0.835112121,77.7556712 C1.00174848,77.6470519 1.1888697,77.5971457 1.40671818,77.5883387 L1.44374848,78.040797 C1.21762727,78.0499709 1.02105152,78.1431781 0.915081818,78.2650079 C0.793748485,78.4055525 0.722051515,78.5996729 0.722051515,78.8635152 C0.722051515,79.1578149 0.784293939,79.3515683 0.895778788,79.4700955 C1.00174848,79.6073375 1.13174848,79.6693533 1.29326364,79.6693533 C1.42483939,79.6693533 1.53829394,79.6194471 1.61511212,79.5317443 C1.69980909,79.4524815 1.79435455,79.207721 1.88299091,78.8414977 C1.98147576,78.4730726 2.05317273,78.2173034 2.12447576,78.0730892 C2.2269,77.8701619 2.35965758,77.7244799 2.51132424,77.6187962 C2.65274848,77.5450378 2.84183939,77.4789855 3.04038485,77.4789855 C3.22356667,77.4789855 3.42605152,77.5450378 3.59662727,77.6470519 C3.77035455,77.7424608 3.89956667,77.9002524 4.01302121,78.0907032 C4.10756667,78.2917958 4.15444545,78.5167406 4.15444545,78.7710419 C4.15444545,79.0840565 4.10756667,79.3515683 4.00356667,79.5581652 C3.89956667,79.7610926 3.75144545,79.9313607 3.54896061,80.0550253 C3.36971818,80.1746534 3.14241515,80.2403387 2.87965758,80.2491457 Z M0.362384848,74.5671797 L0.362384848,74.1147215 L2.51132424,74.1147215 C2.87965758,74.1147215 3.17668788,74.1495824 3.4079303,74.2376521 C3.63011212,74.3084749 3.80502121,74.4490195 3.9559,74.6699278 C4.07880909,74.8713873 4.15444545,75.14 4.15444545,75.4691606 C4.15444545,75.7983213 4.08826364,76.0628975 3.96535455,76.2650909 C3.86135455,76.4801279 3.67226364,76.6217733 3.45441515,76.7186501 C3.21765758,76.8067198 2.90841515,76.8448834 2.51132424,76.8448834 L0.362384848,76.8448834 L0.362384848,76.3836181 L2.51132424,76.3836181 C2.84183939,76.3836181 3.06323333,76.3564633 3.21765758,76.3043553 C3.36971818,76.2482109 3.50247576,76.1513342 3.56826364,76.024 C3.66280909,75.878318 3.71047576,75.7102516 3.71047576,75.5124616 C3.71047576,75.1748609 3.63011212,74.9249631 3.46426364,74.7957941 C3.28659697,74.6464425 2.97420303,74.5671797 2.51132424,74.5671797 L0.362384848,74.5671797 Z M4.08826364,73.3411756 L0.362384848,73.3411756 L0.362384848,72.0300374 C0.362384848,71.8061934 0.381293939,71.6351914 0.392718182,71.5126276 C0.419506061,71.3445612 0.481748485,71.1952096 0.566445455,71.071545 C0.651536364,70.9709988 0.774839394,70.8777916 0.944627273,70.8091706 C1.0848697,70.7335774 1.24559697,70.7071565 1.44020303,70.7071565 C1.75023333,70.7071565 2.03780909,70.8003636 2.24620303,70.9798057 C2.46365758,71.1559452 2.57711212,71.5071233 2.57711212,71.9948095 L2.57711212,72.9026617 L4.08826364,72.9026617 L4.08826364,73.3411756 Z M2.1378697,72.9026617 L2.1378697,71.9948095 C2.1378697,71.6887671 2.07602121,71.4858398 1.95468788,71.3621752 C1.84123333,71.2308045 1.67105152,71.1772287 1.45950606,71.1772287 C1.29326364,71.1772287 1.17980909,71.2131905 1.05256667,71.2796098 C0.944627273,71.3621752 0.857960606,71.4502449 0.835112121,71.5739095 C0.807142424,71.6439983 0.807142424,71.7937169 0.807142424,71.9948095 L0.807142424,72.9026617 L2.1378697,72.9026617 Z M4.08826364,70.0961727 L0.362384848,70.0961727 L0.362384848,67.5817817 L0.807142424,67.5817817 L0.807142424,69.6429805 L1.93538485,69.6429805 L1.93538485,67.7080149 L2.38802121,67.7080149 L2.38802121,69.6429805 L3.66280909,69.6429805 L3.66280909,67.5116928 L4.08826364,67.5116928 L4.08826364,70.0961727 Z M4.08826364,66.8596098 L0.362384848,66.8596098 L0.362384848,65.3158207 C0.362384848,65.021521 0.392718182,64.7752927 0.462445455,64.6222715 C0.519960606,64.4542051 0.642081818,64.3367787 0.807142424,64.2307281 C0.982839394,64.128714 1.17980909,64.0898165 1.37796061,64.0898165 C1.64820303,64.0898165 1.87944545,64.1606393 2.04332424,64.3367787 C2.2269,64.4986069 2.3458697,64.7308908 2.3978697,65.0662897 C2.45380909,64.9510652 2.51132424,64.8508858 2.57711212,64.7932736 C2.7098697,64.6516281 2.87965758,64.5308991 3.06323333,64.4072345 L4.08826364,63.8076264 L4.08826364,64.3837493 L3.30944545,64.8508858 C3.08608182,64.9745504 2.90841515,65.098215 2.79496061,65.18445 C2.69056667,65.2600432 2.59050606,65.347746 2.54835455,65.4005878 C2.4979303,65.4706766 2.47311212,65.5506733 2.45380909,65.6156247 C2.42544545,65.6805762 2.42544545,65.7561694 2.42544545,65.8743296 L2.42544545,66.4023811 L4.08826364,66.4023811 L4.08826364,66.8596098 Z M2.01180909,66.4023811 L2.01180909,65.4182017 C2.01180909,65.20133 1.98147576,65.0391349 1.93538485,64.9246443 C1.88299091,64.8072179 1.81720303,64.7140108 1.71320303,64.6516281 C1.60526364,64.5991532 1.49180909,64.5602557 1.37796061,64.5602557 C1.21762727,64.5602557 1.05256667,64.6222715 0.944627273,64.7360282 C0.835112121,64.8508858 0.774839394,65.0483088 0.774839394,65.3033441 L0.774839394,66.4023811 L2.01180909,66.4023811 Z M0.362384848,63.2990237 L4.08826364,63.2990237 L4.08826364,62.8285845 L0.362384848,62.8285845 L0.362384848,63.2990237 Z M4.08826364,62.0271499 L0.362384848,62.0271499 L0.362384848,61.5530411 L3.28659697,59.7362358 L0.362384848,59.7362358 L0.362384848,59.2892819 L4.08826364,59.2892819 L4.08826364,59.7633906 L1.16050606,61.5790951 L4.08826364,61.5790951 L4.08826364,62.0271499 Z M4.08826364,57.6350386 L0.807142424,57.6350386 L0.807142424,58.7751748 L0.362384848,58.7751748 L0.362384848,56.0299676 L0.807142424,56.0299676 L0.807142424,57.167902 L4.08826364,57.167902 L4.08826364,57.6350386 Z M4.08826364,55.5415475 L0.362384848,55.5415475 L0.362384848,53.031193 L0.807142424,53.031193 L0.807142424,55.0850527 L1.93538485,55.0850527 L1.93538485,53.168802 L2.38802121,53.168802 L2.38802121,55.0850527 L3.66280909,55.0850527 L3.66280909,52.9519303 L4.08826364,52.9519303 L4.08826364,55.5415475 Z M4.08826364,52.3163603 L0.362384848,52.3163603 L0.362384848,51.8312428 L3.28659697,50.0294828 L0.362384848,50.0294828 L0.362384848,49.5884002 L4.08826364,49.5884002 L4.08826364,50.053702 L1.16050606,51.8756447 L4.08826364,51.8756447 L4.08826364,52.3163603 Z M4.08826364,48.8067812 L0.362384848,48.8067812 L0.362384848,47.6185737 C0.362384848,47.3378514 0.381293939,47.143731 0.415960606,46.9899759 C0.462445455,46.7874155 0.54359697,46.62889 0.670839394,46.4758688 C0.844172727,46.2997293 1.05256667,46.1635882 1.31217273,46.0722159 C1.57650606,45.9878157 1.87944545,45.9316712 2.20483939,45.9316712 C2.48256667,45.9316712 2.73744545,45.9790087 2.96868788,46.0234105 C3.17274848,46.0971689 3.36971818,46.1635882 3.50247576,46.2696389 C3.66280909,46.3577086 3.74750606,46.4703645 3.84205152,46.5907264 C3.91768788,46.6857684 3.97480909,46.8318174 4.02168788,47.0024525 C4.06935455,47.1580423 4.08826364,47.3378514 4.08826364,47.5627962 L4.08826364,48.8067812 Z M3.66280909,48.3488186 L3.66280909,47.616005 C3.66280909,47.3811523 3.63011212,47.1962059 3.56826364,47.0729083 C3.53596061,46.946308 3.46426364,46.8318174 3.39808182,46.7613616 C3.26729394,46.6556779 3.11680909,46.5588012 2.90841515,46.5158672 C2.71853636,46.440274 2.48256667,46.4171557 2.20483939,46.4171557 C1.80380909,46.4171557 1.51071818,46.4703645 1.29326364,46.594396 C1.10023333,46.7081528 0.944627273,46.8439269 0.872930303,47.0200664 C0.835112121,47.1529049 0.807142424,47.3547314 0.807142424,47.6185737 L0.807142424,48.3488186 L3.66280909,48.3488186 Z M4.08826364,45.2887621 L0.362384848,45.2887621 L0.362384848,42.7817103 L0.807142424,42.7817103 L0.807142424,44.8315334 L1.93538485,44.8315334 L1.93538485,42.9189523 L2.38802121,42.9189523 L2.38802121,44.8315334 L3.66280909,44.8315334 L3.66280909,42.7072179 L4.08826364,42.7072179 L4.08826364,45.2887621 Z M4.08826364,42.0694462 L0.362384848,42.0694462 L0.362384848,41.6045114 L3.28659697,39.7759635 L0.362384848,39.7759635 L0.362384848,39.3392844 L4.08826364,39.3392844 L4.08826364,39.8104575 L1.16050606,41.6221254 L4.08826364,41.6221254 L4.08826364,42.0694462 Z M2.76620303,36.089878 L2.90841515,35.6201727 C3.30944545,35.7082424 3.63011212,35.9001611 3.83259697,36.1467563 C4.04059697,36.4017916 4.15444545,36.7140722 4.15444545,37.0696538 C4.15444545,37.4307397 4.06935455,37.7393508 3.89956667,37.9679651 C3.73805152,38.2277709 3.50247576,38.398406 3.19953636,38.5209697 C2.87965758,38.6358273 2.54835455,38.6938066 2.20483939,38.6938066 C1.80380909,38.6938066 1.46699091,38.6358273 1.1888697,38.4776687 C0.895778788,38.3591416 0.670839394,38.1510768 0.519960606,37.9048485 C0.381293939,37.6476115 0.292657576,37.3551465 0.292657576,37.0575442 C0.292657576,36.7140722 0.381293939,36.4142682 0.570384848,36.1823512 C0.774839394,35.935022 1.03917273,35.7731939 1.38741515,35.6781519 L1.49180909,36.1162989 C1.22235455,36.2223495 1.02105152,36.3228958 0.90759697,36.4773848 C0.774839394,36.6483869 0.71259697,36.8333333 0.71259697,37.0696538 C0.71259697,37.333863 0.784293939,37.5632113 0.925718182,37.7356812 C1.06556667,37.9103528 1.24559697,38.0428244 1.46699091,38.1217202 C1.69980909,38.1866716 1.95468788,38.2277709 2.20483939,38.2277709 C2.51132424,38.2277709 2.78511212,38.1866716 3.02108182,38.0986019 C3.26729394,38.0068626 3.43550606,37.874758 3.54896061,37.6824724 C3.66280909,37.5100025 3.72859697,37.3125795 3.72859697,37.101946 C3.72859697,36.8333333 3.66280909,36.6366443 3.48908182,36.4428908 C3.33702121,36.2704209 3.09199091,36.1467563 2.76620303,36.089878 Z M0.362384848,34.9868045 L4.08826364,34.9868045 L4.08826364,34.5255392 L0.362384848,34.5255392 L0.362384848,34.9868045 Z M4.08826364,34.0939975 L0.362384848,32.7531357 L0.362384848,32.2570095 L4.08826364,30.8313807 L4.08826364,31.3686061 L2.96868788,31.7671216 L2.96868788,33.2323819 L4.08826364,33.6026418 L4.08826364,34.0939975 Z M2.55820303,33.0830303 L2.55820303,31.9047306 L1.52332424,32.2746235 C1.21762727,32.3795733 0.944627273,32.4687439 0.750021212,32.5245214 C0.982839394,32.5681893 1.22235455,32.6250677 1.46699091,32.7131374 L2.55820303,33.0830303 Z M4.08826364,29.0997094 L0.362384848,29.0997094 L0.362384848,26.75999 L0.807142424,26.75999 L0.807142424,28.6498198 L1.95468788,28.6498198 L1.95468788,27.0135575 L2.3978697,27.0135575 L2.3978697,28.6498198 L4.08826364,28.6498198 L4.08826364,29.0997094 Z M0.362384848,26.0833209 L4.08826364,26.0833209 L4.08826364,25.6253582 L0.362384848,25.6253582 L0.362384848,26.0833209 Z M4.08826364,24.8081445 L0.362384848,24.8081445 L0.362384848,24.3534844 L3.28659697,22.520533 L0.362384848,22.520533 L0.362384848,22.0735791 L4.08826364,22.0735791 L4.08826364,22.5421835 L1.16050606,24.3758688 L4.08826364,24.3758688 L4.08826364,24.8081445 Z M4.08826364,21.6893748 L0.362384848,20.3437426 L0.362384848,19.8571573 L4.08826364,18.4370328 L4.08826364,18.9555434 L2.96868788,19.3779112 L2.96868788,20.8229888 L4.08826364,21.207193 L4.08826364,21.6893748 Z M2.55820303,20.6817103 L2.55820303,19.5052453 L1.52332424,19.8644965 C1.21762727,19.9808219 0.944627273,20.0725612 0.750021212,20.1107248 C0.982839394,20.1782449 1.22235455,20.220078 1.46699091,20.3008086 L2.55820303,20.6817103 Z M4.08826364,18.0796164 L0.362384848,18.0796164 L0.362384848,17.6003703 L3.28659697,15.7842989 L0.362384848,15.7842989 L0.362384848,15.3402806 L4.08826364,15.3402806 L4.08826364,15.8162242 L1.16050606,17.6304608 L4.08826364,17.6304608 L4.08826364,18.0796164 Z M2.76620303,12.0739942 L2.90841515,11.6266733 C3.30944545,11.7352927 3.63011212,11.8945521 3.83259697,12.144083 C4.04059697,12.4031548 4.15444545,12.6974545 4.15444545,13.0636779 C4.15444545,13.4409099 4.06935455,13.7440166 3.89956667,13.9814379 C3.73805152,14.2162906 3.50247576,14.3960996 3.19953636,14.5091225 C2.87965758,14.6316862 2.54835455,14.6959037 2.20483939,14.6959037 C1.80380909,14.6959037 1.46699091,14.6316862 1.1888697,14.4966459 C0.895778788,14.3516978 0.670839394,14.1630818 0.519960606,13.9062117 C0.381293939,13.6434703 0.292657576,13.3671515 0.292657576,13.0497335 C0.292657576,12.7080963 0.381293939,12.4262731 0.570384848,12.1763753 C0.774839394,11.9415226 1.03917273,11.7833641 1.38741515,11.6828178 L1.49180909,12.1407804 C1.22235455,12.2325197 1.02105152,12.332699 0.90759697,12.4857202 C0.774839394,12.6413101 0.71259697,12.8262565 0.71259697,13.0636779 C0.71259697,13.3352262 0.784293939,13.5645745 0.925718182,13.7370444 C1.06556667,13.9168535 1.24559697,14.0438207 1.46699091,14.1142765 C1.69980909,14.1880349 1.95468788,14.2379411 2.20483939,14.2379411 C2.51132424,14.2379411 2.78511212,14.1880349 3.02108182,14.0999651 C3.26729394,14.0049232 3.43550606,13.8676812 3.54896061,13.6871382 C3.66280909,13.5146683 3.72859697,13.3172453 3.72859697,13.0992727 C3.72859697,12.8387331 3.66280909,12.6325031 3.48908182,12.4475567 C3.33702121,12.2538032 3.09199091,12.144083 2.76620303,12.0739942 Z M0.362384848,10.9837642 L4.08826364,10.9837642 L4.08826364,10.522499 L0.362384848,10.522499 L0.362384848,10.9837642 Z M4.08826364,9.70418431 L0.362384848,9.70418431 L0.362384848,7.19346285 L0.807142424,7.19346285 L0.807142424,9.25135907 L1.93538485,9.25135907 L1.93538485,7.32409963 L2.38802121,7.32409963 L2.38802121,9.25135907 L3.66280909,9.25135907 L3.66280909,7.10539311 L4.08826364,7.10539311 L4.08826364,9.70418431 Z M4.08826364,6.46798838 L0.362384848,6.46798838 L0.362384848,4.93374014 C0.362384848,4.61632213 0.392718182,4.38880863 0.462445455,4.21964134 C0.519960606,4.05451059 0.642081818,3.92717642 0.807142424,3.83360232 C0.982839394,3.74039518 1.17980909,3.6930577 1.37796061,3.6930577 C1.64820303,3.6930577 1.87944545,3.77232046 2.04332424,3.92717642 C2.2269,4.08460108 2.3458697,4.33082939 2.3978697,4.67430137 C2.45380909,4.55137069 2.51132424,4.44898962 2.57711212,4.39578082 C2.7098697,4.26587796 2.87965758,4.12826899 3.06323333,4.02221835 L4.08826364,3.41306932 L4.08826364,3.99102698 L3.30944545,4.43688003 C3.08608182,4.57265421 2.90841515,4.69558489 2.79496061,4.78365463 C2.69056667,4.86805479 2.59050606,4.9392445 2.54835455,4.99869157 C2.4979303,5.07244998 2.47311212,5.14804317 2.45380909,5.21409548 C2.42544545,5.26657036 2.42544545,5.3546401 2.42544545,5.47463512 L2.42544545,6.01002574 L4.08826364,6.01002574 L4.08826364,6.46798838 Z M2.01180909,6.01002574 L2.01180909,5.02547945 C2.01180909,4.81007555 1.98147576,4.63944043 1.93538485,4.53375675 C1.88299091,4.40642258 1.81720303,4.32202242 1.71320303,4.26587796 C1.60526364,4.2071648 1.49180909,4.16019427 1.37796061,4.16019427 C1.21762727,4.16019427 1.05256667,4.21964134 0.944627273,4.33633375 C0.835112121,4.46697053 0.774839394,4.65191698 0.774839394,4.90695226 L0.774839394,6.01002574 L2.01180909,6.01002574 Z M4.08826364,3.34298049 L0.362384848,2.00872395 L0.362384848,1.52067082 L4.08826364,0.101280199 L4.08826364,0.624194271 L2.96868788,1.02784724 L2.96868788,2.48283271 L4.08826364,2.85272561 L4.08826364,3.34298049 Z M2.55820303,2.35219593 L2.55820303,1.16141968 L1.52332424,1.54195434 C1.21762727,1.65864674 0.944627273,1.72873557 0.750021212,1.78231133 C0.982839394,1.82928186 1.22235455,1.88175675 1.46699091,1.965423 L2.55820303,2.35219593 Z" id="Fill-3" fill="#9B9B9B" mask="url(#mask-2)"></path>
                </g>
                <mask id="mask-4" fill="white">
                    <use xlink:href="#path-3"></use>
                </mask>
                <g id="Clip-7" opacity="0.595926339"></g>
                <path d="M0,129.212121 L1.56448235,129.212121 L1.56448235,82.7272727 L0,82.7272727 L0,129.212121 Z M11.4315719,129.212121 L13,129.212121 L13,82.7272727 L11.4315719,82.7272727 L11.4315719,129.212121 Z" id="Fill-6" fill="#BEC1C6" opacity="0.595926339" mask="url(#mask-4)"></path>
            </g>
        </g>
    </g>
</svg>