<svg xmlns="http://www.w3.org/2000/svg"  viewBox="0 0 40 40">
    <defs>
        <linearGradient id="a" x1="28.596%" x2="87.154%" y1="44.404%" y2="57.371%">
            <stop offset="0%" stop-color="#ED1C24"/>
            <stop offset="100%" stop-color="#8B0304"/>
        </linearGradient>
        <linearGradient id="b" x1="10.322%" x2="88.651%" y1="49.953%" y2="49.953%">
            <stop offset="0%" stop-color="#ED1C24"/>
            <stop offset="100%" stop-color="#FFCB05"/>
        </linearGradient>
        <linearGradient id="c" x1="50.002%" x2="50.002%" y1="-.786%" y2="35.658%">
            <stop offset="0%" stop-color="#E39717"/>
            <stop offset="12.36%" stop-color="#E8A116"/>
            <stop offset="43.44%" stop-color="#F4B710"/>
            <stop offset="73.21%" stop-color="#FCC509"/>
            <stop offset="100%" stop-color="#FFCB05"/>
        </linearGradient>
        <linearGradient id="d" x1="27.043%" x2="46.808%" y1="24.367%" y2="60.204%">
            <stop offset="0%" stop-color="#E39717"/>
            <stop offset="10.13%" stop-color="#E8A116"/>
            <stop offset="35.61%" stop-color="#F4B710"/>
            <stop offset="60%" stop-color="#FCC509"/>
            <stop offset="82.095%" stop-color="#FFCB05"/>
            <stop offset="99.771%" stop-color="#FFCB05"/>
        </linearGradient>
    </defs>
    <g fill="none" fill-rule="nonzero">
        <path fill="url(#a)" d="M19.653.006C9.113.194.398 7.709.013 18.034c-.379 10.33 7.514 19.025 17.63 19.412 5.146.2 9.88-1.789 13.343-5.156 3.332-3.245 3.194-8.953.546-6.366a15.491 15.491 0 0 1-11.425 4.383C11.64 29.996 5.034 23.015 5.35 14.713 5.643 7.011 13.122.915 19.814.546L19.986 0c-.11.006-.218.006-.333.006z"/>
        <path fill="#FFCB05" d="M21.13.546c8.497.528 15.49 7.928-9.236 15.329 6.299 1.267 10.951 4.29 10.951 4.29C44.015 9.155 31.973-.035 19.995 0l-.173.546c.442-.03.878-.03 1.308 0z"/>
        <path fill="url(#b)" d="M10.769 4.437C13.439 2.16 16.751.72 19.898.543c.443-.024.88-.024 1.311.006 4.176.26 7.99 2.177 7.875 4.95l2.088-2.52C28.382 1.087 24.224-.01 20.07 0h-.333c-3.912.07-7.57 1.15-10.642 3.015l1.674 1.422z"/>
        <path fill="url(#c)" d="M30.24 29.25c-.005-.099-.35-2.543-.35-2.543-.857-5.81.34-11.438 9.056-11.9-12.644-6.197-21.05-.265-27.208 1.125 5.606.709 17.422 7.17 18.503 13.319z"/>
        <path fill="url(#d)" d="M34.407 16.498c-5.388 2.268-4.836 8.548-4.318 12.232.103.3.644 2.59-.604 4.982-1.547 2.69-4.054 4.723-8.885 6.039 12.381.587 26.55-11.562 13.807-23.253z"/>
    </g>
</svg>
