<svg xmlns="http://www.w3.org/2000/svg" viewBox="0 0 200 40">
    <defs>
        <linearGradient id="a" x1="56.088%" y1="81.668%" y2="81.668%">
            <stop offset="0%" stop-color="#ED1C24"/>
            <stop offset="100%" stop-color="#FFF" stop-opacity="0"/>
        </linearGradient>
        <linearGradient id="b" x1="10.322%" x2="88.651%" y1="49.953%" y2="49.953%">
            <stop offset="0%" stop-color="#ED1C24"/>
            <stop offset="100%" stop-color="#FFCB05"/>
        </linearGradient>
        <linearGradient id="c" x1="50.002%" x2="50.002%" y1="-.786%" y2="35.658%">
            <stop offset="0%" stop-color="#E39717"/>
            <stop offset="12.36%" stop-color="#E8A116"/>
            <stop offset="43.44%" stop-color="#F4B710"/>
            <stop offset="73.21%" stop-color="#FCC509"/>
            <stop offset="100%" stop-color="#FFCB05"/>
        </linearGradient>
        <linearGradient id="d" x1="27.043%" x2="46.808%" y1="24.367%" y2="60.204%">
            <stop offset="0%" stop-color="#E39717"/>
            <stop offset="10.13%" stop-color="#E8A116"/>
            <stop offset="35.61%" stop-color="#F4B710"/>
            <stop offset="60%" stop-color="#FCC509"/>
            <stop offset="81.96%" stop-color="#FFCB05"/>
            <stop offset="100%" stop-color="#FFCB05"/>
        </linearGradient>
    </defs>
    <g fill="none" fill-rule="nonzero">
        <g fill="#002C76">
            <path d="M45.11 23.017c-1.117.277-1.955.415-2.793.415-2.095 0-2.514-1.8-2.514-3.323 0-2.354.838-3.6 2.514-3.6.838 0 1.397.138 1.397.138l1.536.554v-1.939l-.14-.138c-.558-.277-1.815-.693-3.351-.693-3.073 0-5.028 2.216-5.028 5.54 0 3.184 1.955 5.261 4.748 5.261 1.257 0 2.375-.277 4.05-.969l.28-.138-.42-1.524-.278.416zM9.776 17.616c1.397-.554 1.956-1.523 1.956-3.185 0-1.523-.699-2.77-1.956-3.185-.838-.415-1.676-.415-4.33-.415H0v1.523s1.257.139 1.676.277v12.74h4.33c2.094 0 3.072-.139 3.91-.554 1.397-.692 2.235-1.939 2.235-3.6.14-1.94-.699-3.185-2.375-3.6zm-5.028-4.985H5.586c1.118 0 1.956 0 2.514.415.42.277.559.831.559 1.385 0 1.385-.419 2.077-2.095 2.216l-1.257.138-.559.97V12.63zM8.24 22.878c-.698.554-1.676.554-2.933.554h-.559v-4.708H5.866c1.117 0 1.955 0 2.514.415.419.416.698.97.698 1.8 0 .831-.28 1.524-.838 1.94zM95.389 17.616c1.396-.554 1.955-1.523 1.955-3.185 0-1.523-.698-2.77-1.955-3.185-.838-.415-1.676-.415-4.33-.415h-5.447v1.523s1.257.139 1.676.277v12.74h4.33c2.095 0 3.072-.139 3.91-.554 1.397-.692 2.235-1.939 2.235-3.6.14-1.94-.698-3.185-2.374-3.6zm-5.028-4.985H91.199c1.117 0 1.955 0 2.514.415.419.277.558.831.558 1.385 0 1.385-.419 2.077-2.095 2.216l-1.257.138-.558.97V12.63zm3.491 10.247c-.698.554-1.676.554-2.933.554h-.558v-4.708h1.117c1.117 0 1.955 0 2.514.415.419.416.698.97.698 1.8.14.831-.279 1.524-.838 1.94zM32.401 14.57c-.838 0-1.955.277-3.351.83v-.83l-4.33.554v1.523h1.676v8.585h2.933v-8.031c.419-.139 1.257-.416 2.234-.416.42 0 .838.139.978.277.28.277.28.831.28 1.523v6.647h2.932v-6.785c0-1.523-.14-2.077-.558-2.77-.699-.692-1.537-1.107-2.794-1.107zM51.535 14.57c-3.212 0-5.307 2.077-5.307 5.4 0 3.324 1.955 5.4 5.307 5.4 3.212 0 5.167-2.076 5.167-5.4 0-3.323-1.955-5.4-5.167-5.4zm0 9c-.978 0-2.235-.415-2.235-3.6s1.118-3.6 2.235-3.6c.978 0 2.235.415 2.235 3.462-.14 3.323-1.257 3.739-2.235 3.739zM127.371 14.57c-3.212 0-5.307 2.077-5.307 5.4 0 3.324 1.955 5.4 5.307 5.4 3.212 0 5.307-2.076 5.307-5.4 0-3.323-1.955-5.4-5.307-5.4zm0 9c-.978 0-2.235-.415-2.235-3.6s1.118-3.6 2.235-3.6c.978 0 2.235.415 2.235 3.462 0 3.323-1.118 3.739-2.235 3.739zM139.661 23.294l-2.095.277c-.419 0-.558-.139-.698-.277 0-.139-.14-.139-.14-.97v-5.677h2.933v-1.8h-2.933v-2.77h-.419l-2.514.277v9.832c0 1.108.14 1.8.56 2.354.418.554 1.116.83 2.094.83.978 0 1.955-.276 3.073-.692l.279-.138-.14-1.246zM104.606 14.57c-3.212 0-5.307 2.077-5.307 5.4 0 3.324 1.955 5.4 5.307 5.4 3.212 0 5.168-2.076 5.168-5.4 0-3.323-1.956-5.4-5.168-5.4zm0 9c-.977 0-2.234-.415-2.234-3.6s1.117-3.6 2.234-3.6c.978 0 2.235.415 2.235 3.462 0 3.323-1.117 3.739-2.235 3.739zM118.014 15.4c-.699-.415-1.537-.553-2.235-.553-2.933 0-5.028 2.354-5.028 5.539 0 3.046 1.676 4.985 4.19 4.985.699 0 1.397-.139 2.933-.831v.83c0 1.801-.698 2.355-2.933 2.355-.977 0-2.374-.139-3.491-.416v1.8c2.234.416 3.072.555 4.19.555 1.396 0 2.653-.277 3.491-.693 1.257-.692 1.676-1.662 1.676-3.462V14.985h-2.933v.416h.14zm0 7.755c-.559.139-.838.139-1.397.139-1.815 0-2.653-1.108-2.653-3.185 0-2.216 1.117-3.324 2.932-3.324.28 0 .56 0 1.118.139v6.231zM23.184 15.124H20.39v.415c-.699-.415-1.397-.554-2.235-.554-2.793 0-4.888 2.216-4.888 5.54 0 3.046 1.536 4.984 4.19 4.984.698 0 1.536-.277 2.793-1.108v.97l4.05-.416v-1.661h-1.117v-8.17zm-2.793 8.17c-.56.138-.838.138-1.397.138-1.816 0-2.793-1.108-2.793-3.185 0-2.215 1.117-3.462 3.072-3.462.42 0 .559 0 1.118.139v6.37zM150.415 15.124h-2.793v.415c-.698-.415-1.397-.554-2.235-.554-2.793 0-4.888 2.216-4.888 5.54 0 3.046 1.536 4.984 4.19 4.984.698 0 1.536-.277 2.793-1.108v.97l4.05-.416v-1.661h-1.117v-8.17zm-2.933 8.17c-.558.138-.838.138-1.396.138-1.816 0-2.794-1.108-2.794-3.185 0-2.215 1.118-3.462 3.073-3.462.419 0 .559 0 1.117.139v6.37zM149.019 12.493l-.699-2.216-.28.138-4.608 1.8.42 1.247zM70.669 10H70.249l-3.77.415v1.247h1.396v3.323c-1.117-.415-2.793-.692-4.19-.277-1.955.693-3.212 2.493-3.212 5.124 0 2.354 1.118 4.293 3.073 4.985 1.396.415 3.352 0 4.469-.554v.83l3.91-.553v-1.246H70.67c-.14 0 0-13.294 0-13.294zm-2.933 13.155c-1.257.416-2.794.554-3.631-.554-.56-.692-.699-1.661-.699-2.63v-.278c0-1.108.28-1.8.838-2.492.838-.97 2.374-.831 3.492-.277.14 0 0 5.954 0 6.231zM77.652 14.57c-.699 0-1.257 0-1.816.277-2.095.692-3.352 2.492-3.352 5.262 0 2.492 1.257 4.431 3.352 5.123 1.816.554 4.47 0 6.285-.969h.14l-.42-1.523-.977.277c-1.397.415-3.212 1.108-4.33-.277-.558-.693-.698-1.8-.698-2.631l5.587.138h.837v-.831c-.14-4.985-4.469-4.846-4.608-4.846zm-2.095 4.154c0-.139.14-2.216 1.955-2.216 1.955 0 1.955 2.077 1.955 2.216h-3.91z"/>
        </g>
        <path fill="url(#a)" d="M19.78.006C9.17.195.4 7.753.013 18.137c-.381 10.39 7.562 19.135 17.743 19.525 5.18.2 9.944-1.8 13.43-5.187 3.354-3.263 3.215-9.004.55-6.402a15.598 15.598 0 0 1-11.5 4.408c-8.521-.313-15.17-7.334-14.852-15.683C5.68 7.05 13.206.92 19.942.548L20.115 0c-.11.006-.22.006-.335.006z" transform="translate(160)"/>
        <path fill="#FFCB05" d="M181.267.549c8.55.531 15.59 7.974-9.297 15.417 6.34 1.275 11.023 4.315 11.023 4.315C204.299 9.208 192.179-.035 180.123 0l-.173.548c.445-.03.883-.03 1.317 0z"/>
        <path fill="url(#b)" d="M10.839 4.463c2.686-2.29 6.02-3.739 9.187-3.917.446-.024.886-.024 1.32.006 4.203.261 8.042 2.19 7.926 4.98l2.101-2.535C28.566 1.092 24.38-.012 20.2 0h-.336c-3.937.071-7.619 1.157-10.71 3.033l1.685 1.43z" transform="translate(160)"/>
        <path fill="url(#c)" d="M30.436 29.419c-.006-.1-.353-2.559-.353-2.559-.862-5.843.341-11.503 9.114-11.969-12.725-6.232-21.185-.265-27.383 1.132 5.642.714 17.534 7.211 18.622 13.396z" transform="translate(160)"/>
        <path fill="url(#d)" d="M34.63 16.593c-5.424 2.28-4.868 8.597-4.347 12.302.104.301.648 2.606-.608 5.01-1.557 2.706-4.08 4.75-8.942 6.074 12.461.591 26.722-11.628 13.897-23.386z" transform="translate(160)"/>
    </g>
</svg>
