<svg xmlns="http://www.w3.org/2000/svg" viewBox="0 0 168 33">
    <defs>
        <linearGradient id="a" x1="28.596%" x2="87.154%" y1="44.404%" y2="57.371%">
            <stop offset="0%" stop-color="#ED1C24"/>
            <stop offset="100%" stop-color="#8B0304"/>
        </linearGradient>
        <linearGradient id="b" x1="10.322%" x2="88.651%" y1="49.953%" y2="49.953%">
            <stop offset="0%" stop-color="#ED1C24"/>
            <stop offset="100%" stop-color="#FFCB05"/>
        </linearGradient>
        <linearGradient id="c" x1="50.002%" x2="50.002%" y1="-.786%" y2="35.658%">
            <stop offset="0%" stop-color="#E39717"/>
            <stop offset="12.36%" stop-color="#E8A116"/>
            <stop offset="43.44%" stop-color="#F4B710"/>
            <stop offset="73.21%" stop-color="#FCC509"/>
            <stop offset="100%" stop-color="#FFCB05"/>
        </linearGradient>
        <linearGradient id="d" x1="27.043%" x2="46.808%" y1="24.367%" y2="60.204%">
            <stop offset="0%" stop-color="#E39717"/>
            <stop offset="10.13%" stop-color="#E8A116"/>
            <stop offset="35.61%" stop-color="#F4B710"/>
            <stop offset="60%" stop-color="#FCC509"/>
            <stop offset="82.095%" stop-color="#FFCB05"/>
            <stop offset="99.771%" stop-color="#FFCB05"/>
        </linearGradient>
    </defs>
    <g fill="none" fill-rule="nonzero">
        <path fill="url(#a)" d="M16.623.005C7.707.158.337 6.292.011 14.719c-.32 8.432 6.355 15.528 14.912 15.844a15.597 15.597 0 0 0 11.286-4.208c2.818-2.648 2.702-7.307.462-5.196-2.463 2.323-5.908 3.711-9.664 3.577-7.162-.254-12.75-5.952-12.482-12.727C4.773 5.722 11.099.747 16.759.445L16.905 0c-.092.005-.185.005-.282.005z" transform="translate(134.025 .489)"/>
        <path fill="#FFCB05" d="M151.898.934c7.186.432 13.101 6.472-7.813 12.512 5.328 1.034 9.264 3.501 9.264 3.501C171.254 7.961 161.069.46 150.937.49l-.146.445a8.527 8.527 0 0 1 1.107 0z"/>
        <path fill="url(#b)" d="M9.109 3.622c2.257-1.86 5.06-3.034 7.721-3.179.375-.02.745-.02 1.11.005 3.532.212 6.758 1.777 6.66 4.04l1.766-2.056C24.006.886 20.49-.01 16.976 0h-.282c-3.308.058-6.403.94-9.001 2.461l1.416 1.16z" transform="translate(134.025 .489)"/>
        <path fill="url(#c)" d="M25.579 23.874c-.005-.081-.297-2.076-.297-2.076-.725-4.742.287-9.335 7.66-9.713-10.695-5.058-17.805-.216-23.013.918 4.741.58 14.735 5.852 15.65 10.871z" transform="translate(134.025 .489)"/>
        <path fill="url(#d)" d="M29.103 13.466c-4.558 1.85-4.09 6.977-3.653 9.983.088.245.545 2.115-.51 4.066-1.31 2.196-3.43 3.855-7.516 4.93 10.473.479 22.458-9.437 11.679-18.98z" transform="translate(134.025 .489)"/>
        <g fill="#FFF">
            <path d="M38.045 20.69c-.942.235-1.649.352-2.356.352-1.766 0-2.12-1.526-2.12-2.816 0-1.995.707-3.052 2.12-3.052.707 0 1.178.118 1.178.118l1.296.47v-1.644l-.118-.117c-.471-.235-1.531-.587-2.827-.587-2.591 0-4.24 1.878-4.24 4.694 0 2.7 1.649 4.46 4.005 4.46 1.06 0 2.002-.235 3.415-.822l.236-.117-.353-1.291-.236.352zM8.245 16.113c1.178-.47 1.65-1.29 1.65-2.699 0-1.29-.59-2.347-1.65-2.699-.707-.352-1.413-.352-3.651-.352H0v1.29s1.06.118 1.413.236v10.796h3.652c1.767 0 2.591-.117 3.298-.47 1.178-.586 1.884-1.642 1.884-3.05.118-1.644-.588-2.7-2.002-3.052zm-4.24-4.224h.706c.943 0 1.65 0 2.12.352.354.234.472.704.472 1.173 0 1.174-.354 1.76-1.767 1.878l-1.06.117-.471.822v-4.342zm2.944 8.684c-.589.469-1.413.469-2.473.469h-.471v-3.99h.942c.942 0 1.649 0 2.12.352.354.352.59.822.59 1.526 0 .704-.236 1.29-.708 1.643zM80.448 16.113c1.178-.47 1.65-1.29 1.65-2.699 0-1.29-.59-2.347-1.65-2.699-.706-.352-1.413-.352-3.651-.352h-4.594v1.29s1.06.118 1.414.236v10.796h3.651c1.767 0 2.591-.117 3.298-.47 1.178-.586 1.885-1.642 1.885-3.05.117-1.644-.59-2.7-2.003-3.052zm-4.24-4.224h.707c.942 0 1.649 0 2.12.352.353.234.471.704.471 1.173 0 1.174-.353 1.76-1.767 1.878l-1.06.117-.471.822v-4.342zm2.945 8.684c-.59.469-1.414.469-2.474.469h-.471v-3.99h.942c.943 0 1.65 0 2.12.352.354.352.59.822.59 1.526.117.704-.236 1.29-.707 1.643zM27.326 13.531c-.706 0-1.649.235-2.826.705v-.705l-3.652.47v1.29h1.414v7.277h2.473V15.76c.354-.117 1.06-.352 1.885-.352.353 0 .706.117.824.235.236.234.236.704.236 1.29v5.634h2.473v-5.75c0-1.292-.117-1.761-.47-2.348-.59-.587-1.296-.939-2.357-.939zM43.463 13.531c-2.709 0-4.476 1.76-4.476 4.577s1.65 4.577 4.476 4.577c2.71 0 4.358-1.76 4.358-4.577 0-2.816-1.649-4.577-4.358-4.577zm0 7.628c-.824 0-1.884-.352-1.884-3.05 0-2.7.942-3.052 1.884-3.052.825 0 1.885.352 1.885 2.934-.118 2.816-1.06 3.168-1.885 3.168zM107.421 13.531c-2.709 0-4.476 1.76-4.476 4.577s1.65 4.577 4.476 4.577c2.71 0 4.476-1.76 4.476-4.577 0-2.816-1.649-4.577-4.476-4.577zm0 7.628c-.824 0-1.884-.352-1.884-3.05 0-2.7.942-3.052 1.884-3.052.825 0 1.885.352 1.885 2.934 0 2.816-.942 3.168-1.885 3.168zM117.787 20.925l-1.767.234c-.354 0-.471-.117-.59-.234 0-.118-.117-.118-.117-.822v-4.811h2.474v-1.526h-2.474V11.42h-.353l-2.12.235v8.332c0 .939.117 1.525.47 1.995.354.47.943.704 1.768.704.824 0 1.649-.235 2.59-.587l.236-.117-.117-1.056zM88.222 13.531c-2.709 0-4.476 1.76-4.476 4.577s1.65 4.577 4.476 4.577c2.71 0 4.358-1.76 4.358-4.577 0-2.816-1.649-4.577-4.358-4.577zm0 7.628c-.824 0-1.884-.352-1.884-3.05 0-2.7.942-3.052 1.884-3.052.825 0 1.885.352 1.885 2.934 0 2.816-.943 3.168-1.885 3.168zM99.53 14.236c-.59-.353-1.296-.47-1.885-.47-2.473 0-4.24 1.995-4.24 4.694 0 2.582 1.413 4.225 3.533 4.225.59 0 1.178-.117 2.474-.704v.704c0 1.525-.589 1.995-2.474 1.995-.824 0-2.002-.118-2.944-.352v1.525c1.884.352 2.591.47 3.533.47 1.178 0 2.238-.235 2.945-.587 1.06-.587 1.413-1.408 1.413-2.934v-8.919h-2.473v.353h.118zm0 6.571c-.471.118-.707.118-1.178.118-1.531 0-2.238-.94-2.238-2.7 0-1.877.942-2.816 2.473-2.816.236 0 .472 0 .943.117v5.281zM19.553 14h-2.356v.353c-.59-.352-1.178-.47-1.885-.47-2.355 0-4.122 1.878-4.122 4.695 0 2.581 1.295 4.224 3.533 4.224.59 0 1.296-.234 2.356-.939v.822l3.416-.352v-1.408h-.942V14zm-2.356 6.925c-.471.117-.707.117-1.178.117-1.531 0-2.356-.939-2.356-2.7 0-1.877.943-2.933 2.592-2.933.353 0 .47 0 .942.117v5.399zM126.856 14H124.5v.353c-.588-.352-1.177-.47-1.884-.47-2.356 0-4.123 1.878-4.123 4.695 0 2.581 1.296 4.224 3.534 4.224.589 0 1.296-.234 2.356-.939v.822l3.415-.352v-1.408h-.942V14zm-2.473 6.925c-.471.117-.707.117-1.178.117-1.531 0-2.356-.939-2.356-2.7 0-1.877.942-2.933 2.591-2.933.354 0 .472 0 .943.117v5.399zM125.678 11.771l-.589-1.877-.235.117-3.887 1.525.353 1.057zM59.6 9.659h-.353l-3.18.352v1.056h1.177v2.816c-.942-.352-2.355-.586-3.533-.234-1.65.587-2.71 2.112-2.71 4.342 0 1.995.943 3.638 2.592 4.224 1.178.353 2.827 0 3.77-.469v.704l3.297-.47v-1.055H59.6c-.118 0 0-11.266 0-11.266zm-2.473 11.148c-1.06.352-2.356.47-3.063-.47-.471-.586-.589-1.407-.589-2.229v-.235c0-.938.236-1.525.707-2.112.707-.821 2.002-.704 2.945-.235.117 0 0 5.047 0 5.281zM65.49 13.531c-.59 0-1.06 0-1.532.235-1.767.587-2.827 2.112-2.827 4.46 0 2.112 1.06 3.755 2.827 4.342 1.531.469 3.77 0 5.3-.822h.118l-.353-1.29-.825.234c-1.177.352-2.709.939-3.65-.235-.472-.587-.59-1.525-.59-2.23l4.712.118h.706v-.704c-.117-4.225-3.769-4.108-3.887-4.108zm-1.767 3.521c0-.117.117-1.878 1.649-1.878 1.649 0 1.649 1.76 1.649 1.878h-3.298z"/>
        </g>
    </g>
</svg>
